<svg width="257" height="170" viewBox="0 0 257 170" fill="none" xmlns="http://www.w3.org/2000/svg">
<path d="M254.5 85C254.5 107.367 240.794 127.931 217.984 143.019C195.194 158.094 163.563 167.5 128.5 167.5C93.4365 167.5 61.8064 158.094 39.016 143.019C16.2064 127.931 2.5 107.367 2.5 85C2.5 62.633 16.2064 42.0691 39.016 26.981C61.8064 11.9057 93.4365 2.5 128.5 2.5C163.563 2.5 195.194 11.9057 217.984 26.981C240.794 42.0691 254.5 62.633 254.5 85Z" fill="#020403" stroke="#FFE500" stroke-width="5"/>
<mask id="path-2-outside-1_61_119" maskUnits="userSpaceOnUse" x="30" y="59" width="200" height="42" fill="black">
<rect fill="white" x="30" y="59" width="200" height="42"/>
<path d="M32.6992 66.3594C32.6992 65.7897 32.748 65.2933 32.8457 64.8701C32.9434 64.4469 33.1305 64.097 33.4072 63.8203C33.6839 63.5273 34.0664 63.3076 34.5547 63.1611C35.043 63.0146 35.6777 62.9414 36.459 62.9414H48.2021C49.4229 62.9414 50.6354 63.0309 51.8398 63.21C53.0443 63.3727 54.1917 63.6738 55.2822 64.1133C56.3727 64.5527 57.3818 65.1631 58.3096 65.9443C59.2536 66.7093 60.0674 67.7021 60.751 68.9229C61.4346 70.1436 61.9717 71.6084 62.3623 73.3174C62.7529 75.0264 62.9482 77.0365 62.9482 79.3477C62.9482 82.0658 62.7367 84.4176 62.3135 86.4033C61.9066 88.3727 61.3451 90.0492 60.6289 91.4326C59.929 92.8161 59.0908 93.9391 58.1143 94.8018C57.154 95.6481 56.1123 96.3154 54.9893 96.8037C53.8825 97.2757 52.7269 97.5931 51.5225 97.7559C50.3343 97.9186 49.1462 98 47.958 98H36.459C35.6777 98 35.043 97.9268 34.5547 97.7803C34.0664 97.6338 33.6839 97.4222 33.4072 97.1455C33.1305 96.8688 32.9434 96.5189 32.8457 96.0957C32.748 95.6725 32.6992 95.1761 32.6992 94.6064V66.3594ZM59.5059 79.8604C59.5059 77.8421 59.3431 76.0029 59.0176 74.3428C58.6921 72.6826 58.1794 71.2666 57.4795 70.0947C56.7796 68.9229 55.8844 68.0114 54.7939 67.3604C53.7197 66.7093 52.4258 66.3757 50.9121 66.3594V94.6064C52.4258 94.5902 53.7279 94.1995 54.8184 93.4346C55.9089 92.6533 56.7959 91.5954 57.4795 90.2607C58.1794 88.9261 58.6921 87.3717 59.0176 85.5977C59.3431 83.8073 59.5059 81.8949 59.5059 79.8604ZM48.8369 66.3105H46.9326V94.6309H48.8369V66.3105ZM82.2354 98.9521C80.9333 98.9521 79.623 98.8382 78.3047 98.6104C77.0026 98.3825 75.7493 97.9919 74.5449 97.4385C73.3405 96.8851 72.2174 96.1527 71.1758 95.2412C70.1341 94.3135 69.2227 93.166 68.4414 91.7988C67.6764 90.4154 67.0742 88.7878 66.6348 86.916C66.1953 85.028 65.9756 82.8389 65.9756 80.3486C65.9756 77.8747 66.1953 75.6937 66.6348 73.8057C67.0742 71.9176 67.6764 70.29 68.4414 68.9229C69.2227 67.5394 70.1341 66.3919 71.1758 65.4805C72.2174 64.569 73.3405 63.8447 74.5449 63.3076C75.7493 62.7542 77.0026 62.3636 78.3047 62.1357C79.623 61.9079 80.9333 61.7939 82.2354 61.7939C83.5374 61.7939 84.8477 61.9079 86.166 62.1357C87.4844 62.3636 88.7458 62.7542 89.9502 63.3076C91.1546 63.8447 92.2777 64.569 93.3193 65.4805C94.361 66.3919 95.2643 67.5394 96.0293 68.9229C96.7943 70.29 97.3965 71.9176 97.8359 73.8057C98.2754 75.6937 98.4951 77.8747 98.4951 80.3486C98.4951 82.8226 98.2754 85.0036 97.8359 86.8916C97.3965 88.7796 96.7943 90.4154 96.0293 91.7988C95.2643 93.166 94.361 94.3135 93.3193 95.2412C92.2777 96.1527 91.1546 96.8851 89.9502 97.4385C88.7458 97.9919 87.4844 98.3825 86.166 98.6104C84.8477 98.8382 83.5374 98.9521 82.2354 98.9521ZM84.4326 80.3486C84.4326 82.3831 84.5791 84.084 84.8721 85.4512C85.1813 86.8184 85.5882 87.917 86.0928 88.7471C86.5973 89.5771 87.1589 90.1712 87.7773 90.5293C88.4121 90.8711 89.0632 91.042 89.7305 91.042C90.3978 91.042 91.0488 90.8711 91.6836 90.5293C92.3184 90.1712 92.8799 89.5771 93.3682 88.7471C93.8727 87.917 94.2715 86.8184 94.5645 85.4512C94.8737 84.084 95.0283 82.3831 95.0283 80.3486C95.0283 78.3141 94.8737 76.6133 94.5645 75.2461C94.2715 73.8789 93.8727 72.7803 93.3682 71.9502C92.8799 71.1201 92.3184 70.5342 91.6836 70.1924C91.0488 69.8343 90.3978 69.6553 89.7305 69.6553C89.0632 69.6553 88.4121 69.8343 87.7773 70.1924C87.1589 70.5342 86.5973 71.1201 86.0928 71.9502C85.5882 72.7803 85.1813 73.8789 84.8721 75.2461C84.5791 76.6133 84.4326 78.3141 84.4326 80.3486ZM82.3574 80.3486C82.3574 78.3141 82.5202 76.5563 82.8457 75.0752C83.1875 73.5941 83.6188 72.3652 84.1396 71.3887C84.6605 70.4121 85.2464 69.6715 85.8975 69.167C86.5648 68.6462 87.2321 68.3206 87.8994 68.1904C86.9391 68.2393 86.0033 68.4915 85.0918 68.9473C84.1803 69.403 83.3665 70.111 82.6504 71.0713C81.9505 72.0316 81.389 73.2767 80.9658 74.8066C80.5426 76.3203 80.3311 78.1676 80.3311 80.3486C80.3311 82.5296 80.5426 84.3851 80.9658 85.915C81.389 87.4287 81.9505 88.6657 82.6504 89.626C83.3665 90.5863 84.1803 91.2943 85.0918 91.75C86.0033 92.2057 86.9391 92.458 87.8994 92.5068C87.2321 92.3929 86.5648 92.0755 85.8975 91.5547C85.2464 91.0339 84.6605 90.2852 84.1396 89.3086C83.6188 88.332 83.1875 87.1032 82.8457 85.6221C82.5202 84.141 82.3574 82.3831 82.3574 80.3486ZM130.233 62.9414C130.543 62.9414 130.819 63.0391 131.063 63.2344C131.308 63.4297 131.43 63.804 131.43 64.3574V96.1934C131.43 97.3978 130.86 98 129.721 98H121.249C120.712 98 120.264 97.8942 119.906 97.6826C119.564 97.471 119.255 97.2269 118.979 96.9502L106.479 83.8887C106.625 86.0046 106.771 87.9495 106.918 89.7236C106.967 90.4886 107.024 91.2454 107.089 91.9941C107.154 92.7428 107.211 93.4427 107.26 94.0938C107.309 94.7448 107.349 95.3145 107.382 95.8027C107.431 96.291 107.463 96.641 107.479 96.8525C107.512 97.1292 107.463 97.3896 107.333 97.6338C107.219 97.8779 106.942 98 106.503 98H103.427C103.134 98 102.857 97.9105 102.597 97.7314C102.353 97.5361 102.23 97.1618 102.23 96.6084V64.748C102.23 63.5436 102.898 62.9414 104.232 62.9414H112.484C113.103 62.9414 113.616 63.0716 114.022 63.332C114.446 63.5924 114.869 63.9342 115.292 64.3574L127.182 76.1494C127.019 74.2126 126.872 72.4222 126.742 70.7783C126.677 70.0785 126.612 69.3786 126.547 68.6787C126.498 67.9788 126.449 67.3278 126.4 66.7256C126.352 66.1071 126.303 65.57 126.254 65.1143C126.221 64.6585 126.197 64.3167 126.181 64.0889C126.148 63.8285 126.197 63.5762 126.327 63.332C126.474 63.0716 126.799 62.9414 127.304 62.9414H130.233ZM113.607 65.6514C113.314 65.3584 113.07 65.1794 112.875 65.1143C112.696 65.0329 112.444 64.9922 112.118 64.9922H110.385L127.182 81.6914V79.1035L113.607 65.6514ZM135.922 66.3594C135.922 65.7897 135.971 65.2933 136.068 64.8701C136.166 64.4469 136.353 64.097 136.63 63.8203C136.907 63.5273 137.289 63.3076 137.777 63.1611C138.266 63.0146 138.9 62.9414 139.682 62.9414H150.57C151.417 62.9414 152.076 63.0553 152.548 63.2832C153.02 63.4948 153.37 63.7715 153.598 64.1133C153.842 64.4551 153.988 64.8376 154.037 65.2607C154.102 65.6676 154.135 66.0583 154.135 66.4326V69.3135L160.238 63.3809C160.466 63.153 160.67 62.9821 160.849 62.8682C161.028 62.738 161.207 62.6729 161.386 62.6729C161.549 62.6729 161.687 62.7135 161.801 62.7949C161.931 62.8763 162.069 62.9902 162.216 63.1367L163.583 64.5771C163.697 64.7074 163.786 64.8294 163.852 64.9434C163.917 65.041 163.949 65.1549 163.949 65.2852C163.949 65.6107 163.754 65.9281 163.363 66.2373L155.893 72.0723C158.204 72.2839 159.888 72.9512 160.946 74.0742C162.004 75.1973 162.533 76.8086 162.533 78.9082V96.8525C162.533 97.1292 162.493 97.349 162.411 97.5117C162.346 97.6582 162.257 97.7721 162.143 97.8535C162.045 97.9186 161.923 97.9593 161.776 97.9756C161.63 97.9919 161.483 98 161.337 98H159.286C158.863 98 158.586 97.8779 158.456 97.6338C158.342 97.3896 158.285 97.1292 158.285 96.8525V78.6396C158.285 77.891 158.212 77.2725 158.065 76.7842C157.935 76.2959 157.707 75.9053 157.382 75.6123C157.056 75.3031 156.625 75.0833 156.088 74.9531C155.567 74.8066 154.916 74.7171 154.135 74.6846V94.0449C154.135 94.4193 154.102 94.8343 154.037 95.29C153.972 95.7458 153.809 96.1771 153.549 96.584C153.288 96.9746 152.89 97.3083 152.353 97.585C151.815 97.8617 151.075 98 150.131 98H139.682C138.9 98 138.266 97.9268 137.777 97.7803C137.289 97.6338 136.907 97.4222 136.63 97.1455C136.353 96.8688 136.166 96.5189 136.068 96.0957C135.971 95.6725 135.922 95.1761 135.922 94.6064V66.3594ZM152.06 66.5547C152.06 66.1966 152.035 65.9118 151.986 65.7002C151.938 65.4886 151.84 65.334 151.693 65.2363C151.547 65.1224 151.352 65.0573 151.107 65.041C150.863 65.0085 150.546 64.9922 150.155 64.9922V95.9492C150.546 95.9492 150.863 95.9411 151.107 95.9248C151.352 95.8923 151.547 95.8271 151.693 95.7295C151.84 95.6156 151.938 95.4609 151.986 95.2656C152.035 95.054 152.06 94.7611 152.06 94.3867V66.5547ZM184.994 75.1973V94.9971C186.573 94.7692 188.021 94.5658 189.34 94.3867C189.893 94.3053 190.447 94.2321 191 94.167C191.57 94.0856 192.09 94.0124 192.562 93.9473C193.035 93.8822 193.441 93.8333 193.783 93.8008C194.125 93.7682 194.361 93.752 194.491 93.752C194.768 93.752 195.004 93.8089 195.199 93.9229C195.395 94.0205 195.492 94.2321 195.492 94.5576V96.8037C195.492 97.0967 195.419 97.3734 195.272 97.6338C195.126 97.8779 194.776 98 194.223 98H170.492C169.727 98 169.101 97.9268 168.612 97.7803C168.14 97.6338 167.766 97.4222 167.489 97.1455C167.213 96.8688 167.025 96.5189 166.928 96.0957C166.83 95.6725 166.781 95.1761 166.781 94.6064V67.1895C166.781 66.2617 166.887 65.5212 167.099 64.9678C167.31 64.3981 167.611 63.9668 168.002 63.6738C168.393 63.3646 168.856 63.1693 169.394 63.0879C169.947 62.9902 170.557 62.9414 171.225 62.9414H193.295C193.848 62.9414 194.198 63.0716 194.345 63.332C194.507 63.5762 194.589 63.8529 194.589 64.1621V65.8955C194.589 66.221 194.499 66.4408 194.32 66.5547C194.158 66.6523 193.938 66.7012 193.661 66.7012C193.498 66.7012 193.246 66.6849 192.904 66.6523C192.579 66.6198 192.196 66.5791 191.757 66.5303C191.317 66.4652 190.845 66.4001 190.341 66.335C189.836 66.2699 189.332 66.1966 188.827 66.1152C187.655 65.9362 186.378 65.7327 184.994 65.5049V71.7061H194.076C194.418 71.7061 194.589 71.877 194.589 72.2188V74.6602C194.589 75.0182 194.418 75.1973 194.076 75.1973H184.994ZM182.919 65.1631L181.015 64.8945V95.5342L182.919 95.29V65.1631ZM202.963 79.4453L196.762 65.7979C196.664 65.57 196.599 65.3665 196.566 65.1875C196.534 65.0085 196.518 64.8294 196.518 64.6504C196.518 64.0807 196.697 63.6576 197.055 63.3809C197.413 63.0879 197.787 62.9414 198.178 62.9414H211.508C211.915 62.9414 212.265 62.9984 212.558 63.1123C212.851 63.21 213.095 63.332 213.29 63.4785C213.485 63.625 213.632 63.7878 213.729 63.9668C213.843 64.1296 213.925 64.276 213.974 64.4062L218.271 76.1982L222.177 64.9434C222.274 64.6667 222.364 64.4062 222.445 64.1621C222.543 63.918 222.649 63.7064 222.763 63.5273C222.893 63.3483 223.048 63.21 223.227 63.1123C223.406 62.9984 223.642 62.9414 223.935 62.9414H226.181C226.409 62.9414 226.604 62.9902 226.767 63.0879C226.929 63.1855 227.011 63.3483 227.011 63.5762C227.011 63.8854 226.913 64.2923 226.718 64.7969L221.176 78.9082V94.582C221.176 95.1517 221.119 95.6481 221.005 96.0713C220.891 96.4945 220.696 96.8525 220.419 97.1455C220.159 97.4222 219.8 97.6338 219.345 97.7803C218.905 97.9268 218.344 98 217.66 98H206.137C205.502 98 204.981 97.9268 204.574 97.7803C204.167 97.6338 203.842 97.4222 203.598 97.1455C203.37 96.8688 203.207 96.5189 203.109 96.0957C203.012 95.6725 202.963 95.1761 202.963 94.6064V79.4453ZM217.196 95.9492C217.587 95.9492 217.904 95.9411 218.148 95.9248C218.393 95.8923 218.588 95.8271 218.734 95.7295C218.881 95.6156 218.979 95.4609 219.027 95.2656C219.076 95.054 219.101 94.7611 219.101 94.3867V84.3281L212.289 65.749C212.191 65.4723 212.053 65.277 211.874 65.1631C211.711 65.0492 211.492 64.9922 211.215 64.9922H210.043L217.196 84.5234V95.9492Z"/>
</mask>
<path d="M32.6992 66.3594C32.6992 65.7897 32.748 65.2933 32.8457 64.8701C32.9434 64.4469 33.1305 64.097 33.4072 63.8203C33.6839 63.5273 34.0664 63.3076 34.5547 63.1611C35.043 63.0146 35.6777 62.9414 36.459 62.9414H48.2021C49.4229 62.9414 50.6354 63.0309 51.8398 63.21C53.0443 63.3727 54.1917 63.6738 55.2822 64.1133C56.3727 64.5527 57.3818 65.1631 58.3096 65.9443C59.2536 66.7093 60.0674 67.7021 60.751 68.9229C61.4346 70.1436 61.9717 71.6084 62.3623 73.3174C62.7529 75.0264 62.9482 77.0365 62.9482 79.3477C62.9482 82.0658 62.7367 84.4176 62.3135 86.4033C61.9066 88.3727 61.3451 90.0492 60.6289 91.4326C59.929 92.8161 59.0908 93.9391 58.1143 94.8018C57.154 95.6481 56.1123 96.3154 54.9893 96.8037C53.8825 97.2757 52.7269 97.5931 51.5225 97.7559C50.3343 97.9186 49.1462 98 47.958 98H36.459C35.6777 98 35.043 97.9268 34.5547 97.7803C34.0664 97.6338 33.6839 97.4222 33.4072 97.1455C33.1305 96.8688 32.9434 96.5189 32.8457 96.0957C32.748 95.6725 32.6992 95.1761 32.6992 94.6064V66.3594ZM59.5059 79.8604C59.5059 77.8421 59.3431 76.0029 59.0176 74.3428C58.6921 72.6826 58.1794 71.2666 57.4795 70.0947C56.7796 68.9229 55.8844 68.0114 54.7939 67.3604C53.7197 66.7093 52.4258 66.3757 50.9121 66.3594V94.6064C52.4258 94.5902 53.7279 94.1995 54.8184 93.4346C55.9089 92.6533 56.7959 91.5954 57.4795 90.2607C58.1794 88.9261 58.6921 87.3717 59.0176 85.5977C59.3431 83.8073 59.5059 81.8949 59.5059 79.8604ZM48.8369 66.3105H46.9326V94.6309H48.8369V66.3105ZM82.2354 98.9521C80.9333 98.9521 79.623 98.8382 78.3047 98.6104C77.0026 98.3825 75.7493 97.9919 74.5449 97.4385C73.3405 96.8851 72.2174 96.1527 71.1758 95.2412C70.1341 94.3135 69.2227 93.166 68.4414 91.7988C67.6764 90.4154 67.0742 88.7878 66.6348 86.916C66.1953 85.028 65.9756 82.8389 65.9756 80.3486C65.9756 77.8747 66.1953 75.6937 66.6348 73.8057C67.0742 71.9176 67.6764 70.29 68.4414 68.9229C69.2227 67.5394 70.1341 66.3919 71.1758 65.4805C72.2174 64.569 73.3405 63.8447 74.5449 63.3076C75.7493 62.7542 77.0026 62.3636 78.3047 62.1357C79.623 61.9079 80.9333 61.7939 82.2354 61.7939C83.5374 61.7939 84.8477 61.9079 86.166 62.1357C87.4844 62.3636 88.7458 62.7542 89.9502 63.3076C91.1546 63.8447 92.2777 64.569 93.3193 65.4805C94.361 66.3919 95.2643 67.5394 96.0293 68.9229C96.7943 70.29 97.3965 71.9176 97.8359 73.8057C98.2754 75.6937 98.4951 77.8747 98.4951 80.3486C98.4951 82.8226 98.2754 85.0036 97.8359 86.8916C97.3965 88.7796 96.7943 90.4154 96.0293 91.7988C95.2643 93.166 94.361 94.3135 93.3193 95.2412C92.2777 96.1527 91.1546 96.8851 89.9502 97.4385C88.7458 97.9919 87.4844 98.3825 86.166 98.6104C84.8477 98.8382 83.5374 98.9521 82.2354 98.9521ZM84.4326 80.3486C84.4326 82.3831 84.5791 84.084 84.8721 85.4512C85.1813 86.8184 85.5882 87.917 86.0928 88.7471C86.5973 89.5771 87.1589 90.1712 87.7773 90.5293C88.4121 90.8711 89.0632 91.042 89.7305 91.042C90.3978 91.042 91.0488 90.8711 91.6836 90.5293C92.3184 90.1712 92.8799 89.5771 93.3682 88.7471C93.8727 87.917 94.2715 86.8184 94.5645 85.4512C94.8737 84.084 95.0283 82.3831 95.0283 80.3486C95.0283 78.3141 94.8737 76.6133 94.5645 75.2461C94.2715 73.8789 93.8727 72.7803 93.3682 71.9502C92.8799 71.1201 92.3184 70.5342 91.6836 70.1924C91.0488 69.8343 90.3978 69.6553 89.7305 69.6553C89.0632 69.6553 88.4121 69.8343 87.7773 70.1924C87.1589 70.5342 86.5973 71.1201 86.0928 71.9502C85.5882 72.7803 85.1813 73.8789 84.8721 75.2461C84.5791 76.6133 84.4326 78.3141 84.4326 80.3486ZM82.3574 80.3486C82.3574 78.3141 82.5202 76.5563 82.8457 75.0752C83.1875 73.5941 83.6188 72.3652 84.1396 71.3887C84.6605 70.4121 85.2464 69.6715 85.8975 69.167C86.5648 68.6462 87.2321 68.3206 87.8994 68.1904C86.9391 68.2393 86.0033 68.4915 85.0918 68.9473C84.1803 69.403 83.3665 70.111 82.6504 71.0713C81.9505 72.0316 81.389 73.2767 80.9658 74.8066C80.5426 76.3203 80.3311 78.1676 80.3311 80.3486C80.3311 82.5296 80.5426 84.3851 80.9658 85.915C81.389 87.4287 81.9505 88.6657 82.6504 89.626C83.3665 90.5863 84.1803 91.2943 85.0918 91.75C86.0033 92.2057 86.9391 92.458 87.8994 92.5068C87.2321 92.3929 86.5648 92.0755 85.8975 91.5547C85.2464 91.0339 84.6605 90.2852 84.1396 89.3086C83.6188 88.332 83.1875 87.1032 82.8457 85.6221C82.5202 84.141 82.3574 82.3831 82.3574 80.3486ZM130.233 62.9414C130.543 62.9414 130.819 63.0391 131.063 63.2344C131.308 63.4297 131.43 63.804 131.43 64.3574V96.1934C131.43 97.3978 130.86 98 129.721 98H121.249C120.712 98 120.264 97.8942 119.906 97.6826C119.564 97.471 119.255 97.2269 118.979 96.9502L106.479 83.8887C106.625 86.0046 106.771 87.9495 106.918 89.7236C106.967 90.4886 107.024 91.2454 107.089 91.9941C107.154 92.7428 107.211 93.4427 107.26 94.0938C107.309 94.7448 107.349 95.3145 107.382 95.8027C107.431 96.291 107.463 96.641 107.479 96.8525C107.512 97.1292 107.463 97.3896 107.333 97.6338C107.219 97.8779 106.942 98 106.503 98H103.427C103.134 98 102.857 97.9105 102.597 97.7314C102.353 97.5361 102.23 97.1618 102.23 96.6084V64.748C102.23 63.5436 102.898 62.9414 104.232 62.9414H112.484C113.103 62.9414 113.616 63.0716 114.022 63.332C114.446 63.5924 114.869 63.9342 115.292 64.3574L127.182 76.1494C127.019 74.2126 126.872 72.4222 126.742 70.7783C126.677 70.0785 126.612 69.3786 126.547 68.6787C126.498 67.9788 126.449 67.3278 126.4 66.7256C126.352 66.1071 126.303 65.57 126.254 65.1143C126.221 64.6585 126.197 64.3167 126.181 64.0889C126.148 63.8285 126.197 63.5762 126.327 63.332C126.474 63.0716 126.799 62.9414 127.304 62.9414H130.233ZM113.607 65.6514C113.314 65.3584 113.07 65.1794 112.875 65.1143C112.696 65.0329 112.444 64.9922 112.118 64.9922H110.385L127.182 81.6914V79.1035L113.607 65.6514ZM135.922 66.3594C135.922 65.7897 135.971 65.2933 136.068 64.8701C136.166 64.4469 136.353 64.097 136.63 63.8203C136.907 63.5273 137.289 63.3076 137.777 63.1611C138.266 63.0146 138.9 62.9414 139.682 62.9414H150.57C151.417 62.9414 152.076 63.0553 152.548 63.2832C153.02 63.4948 153.37 63.7715 153.598 64.1133C153.842 64.4551 153.988 64.8376 154.037 65.2607C154.102 65.6676 154.135 66.0583 154.135 66.4326V69.3135L160.238 63.3809C160.466 63.153 160.67 62.9821 160.849 62.8682C161.028 62.738 161.207 62.6729 161.386 62.6729C161.549 62.6729 161.687 62.7135 161.801 62.7949C161.931 62.8763 162.069 62.9902 162.216 63.1367L163.583 64.5771C163.697 64.7074 163.786 64.8294 163.852 64.9434C163.917 65.041 163.949 65.1549 163.949 65.2852C163.949 65.6107 163.754 65.9281 163.363 66.2373L155.893 72.0723C158.204 72.2839 159.888 72.9512 160.946 74.0742C162.004 75.1973 162.533 76.8086 162.533 78.9082V96.8525C162.533 97.1292 162.493 97.349 162.411 97.5117C162.346 97.6582 162.257 97.7721 162.143 97.8535C162.045 97.9186 161.923 97.9593 161.776 97.9756C161.63 97.9919 161.483 98 161.337 98H159.286C158.863 98 158.586 97.8779 158.456 97.6338C158.342 97.3896 158.285 97.1292 158.285 96.8525V78.6396C158.285 77.891 158.212 77.2725 158.065 76.7842C157.935 76.2959 157.707 75.9053 157.382 75.6123C157.056 75.3031 156.625 75.0833 156.088 74.9531C155.567 74.8066 154.916 74.7171 154.135 74.6846V94.0449C154.135 94.4193 154.102 94.8343 154.037 95.29C153.972 95.7458 153.809 96.1771 153.549 96.584C153.288 96.9746 152.89 97.3083 152.353 97.585C151.815 97.8617 151.075 98 150.131 98H139.682C138.9 98 138.266 97.9268 137.777 97.7803C137.289 97.6338 136.907 97.4222 136.63 97.1455C136.353 96.8688 136.166 96.5189 136.068 96.0957C135.971 95.6725 135.922 95.1761 135.922 94.6064V66.3594ZM152.06 66.5547C152.06 66.1966 152.035 65.9118 151.986 65.7002C151.938 65.4886 151.84 65.334 151.693 65.2363C151.547 65.1224 151.352 65.0573 151.107 65.041C150.863 65.0085 150.546 64.9922 150.155 64.9922V95.9492C150.546 95.9492 150.863 95.9411 151.107 95.9248C151.352 95.8923 151.547 95.8271 151.693 95.7295C151.84 95.6156 151.938 95.4609 151.986 95.2656C152.035 95.054 152.06 94.7611 152.06 94.3867V66.5547ZM184.994 75.1973V94.9971C186.573 94.7692 188.021 94.5658 189.34 94.3867C189.893 94.3053 190.447 94.2321 191 94.167C191.57 94.0856 192.09 94.0124 192.562 93.9473C193.035 93.8822 193.441 93.8333 193.783 93.8008C194.125 93.7682 194.361 93.752 194.491 93.752C194.768 93.752 195.004 93.8089 195.199 93.9229C195.395 94.0205 195.492 94.2321 195.492 94.5576V96.8037C195.492 97.0967 195.419 97.3734 195.272 97.6338C195.126 97.8779 194.776 98 194.223 98H170.492C169.727 98 169.101 97.9268 168.612 97.7803C168.14 97.6338 167.766 97.4222 167.489 97.1455C167.213 96.8688 167.025 96.5189 166.928 96.0957C166.83 95.6725 166.781 95.1761 166.781 94.6064V67.1895C166.781 66.2617 166.887 65.5212 167.099 64.9678C167.31 64.3981 167.611 63.9668 168.002 63.6738C168.393 63.3646 168.856 63.1693 169.394 63.0879C169.947 62.9902 170.557 62.9414 171.225 62.9414H193.295C193.848 62.9414 194.198 63.0716 194.345 63.332C194.507 63.5762 194.589 63.8529 194.589 64.1621V65.8955C194.589 66.221 194.499 66.4408 194.32 66.5547C194.158 66.6523 193.938 66.7012 193.661 66.7012C193.498 66.7012 193.246 66.6849 192.904 66.6523C192.579 66.6198 192.196 66.5791 191.757 66.5303C191.317 66.4652 190.845 66.4001 190.341 66.335C189.836 66.2699 189.332 66.1966 188.827 66.1152C187.655 65.9362 186.378 65.7327 184.994 65.5049V71.7061H194.076C194.418 71.7061 194.589 71.877 194.589 72.2188V74.6602C194.589 75.0182 194.418 75.1973 194.076 75.1973H184.994ZM182.919 65.1631L181.015 64.8945V95.5342L182.919 95.29V65.1631ZM202.963 79.4453L196.762 65.7979C196.664 65.57 196.599 65.3665 196.566 65.1875C196.534 65.0085 196.518 64.8294 196.518 64.6504C196.518 64.0807 196.697 63.6576 197.055 63.3809C197.413 63.0879 197.787 62.9414 198.178 62.9414H211.508C211.915 62.9414 212.265 62.9984 212.558 63.1123C212.851 63.21 213.095 63.332 213.29 63.4785C213.485 63.625 213.632 63.7878 213.729 63.9668C213.843 64.1296 213.925 64.276 213.974 64.4062L218.271 76.1982L222.177 64.9434C222.274 64.6667 222.364 64.4062 222.445 64.1621C222.543 63.918 222.649 63.7064 222.763 63.5273C222.893 63.3483 223.048 63.21 223.227 63.1123C223.406 62.9984 223.642 62.9414 223.935 62.9414H226.181C226.409 62.9414 226.604 62.9902 226.767 63.0879C226.929 63.1855 227.011 63.3483 227.011 63.5762C227.011 63.8854 226.913 64.2923 226.718 64.7969L221.176 78.9082V94.582C221.176 95.1517 221.119 95.6481 221.005 96.0713C220.891 96.4945 220.696 96.8525 220.419 97.1455C220.159 97.4222 219.8 97.6338 219.345 97.7803C218.905 97.9268 218.344 98 217.66 98H206.137C205.502 98 204.981 97.9268 204.574 97.7803C204.167 97.6338 203.842 97.4222 203.598 97.1455C203.37 96.8688 203.207 96.5189 203.109 96.0957C203.012 95.6725 202.963 95.1761 202.963 94.6064V79.4453ZM217.196 95.9492C217.587 95.9492 217.904 95.9411 218.148 95.9248C218.393 95.8923 218.588 95.8271 218.734 95.7295C218.881 95.6156 218.979 95.4609 219.027 95.2656C219.076 95.054 219.101 94.7611 219.101 94.3867V84.3281L212.289 65.749C212.191 65.4723 212.053 65.277 211.874 65.1631C211.711 65.0492 211.492 64.9922 211.215 64.9922H210.043L217.196 84.5234V95.9492Z" fill="#FFE500"/>
<path d="M33.4072 63.8203L34.8214 65.2345L34.8416 65.2143L34.8613 65.1936L33.4072 63.8203ZM51.8398 63.21L51.5458 65.1882L51.5589 65.1902L51.572 65.1919L51.8398 63.21ZM55.2822 64.1133L54.5347 65.9683L55.2822 64.1133ZM58.3096 65.9443L57.0213 67.4742L57.0357 67.4863L57.0504 67.4982L58.3096 65.9443ZM62.3135 86.4033L60.3574 85.9864L60.3548 85.9986L62.3135 86.4033ZM60.6289 91.4326L58.8528 90.5132L58.8485 90.5215L58.8443 90.5298L60.6289 91.4326ZM58.1143 94.8018L59.4367 96.3022L59.4383 96.3007L58.1143 94.8018ZM54.9893 96.8037L55.7738 98.6434L55.7867 98.6379L54.9893 96.8037ZM51.5225 97.7559L51.2546 95.7739L51.251 95.7744L51.5225 97.7559ZM33.4072 97.1455L31.993 98.5597L33.4072 97.1455ZM54.7939 67.3604L53.7573 69.0708L53.7687 69.0776L54.7939 67.3604ZM50.9121 66.3594L50.9336 64.3595L48.9121 64.3378V66.3594H50.9121ZM50.9121 94.6064H48.9121V96.6281L50.9336 96.6063L50.9121 94.6064ZM54.8184 93.4346L55.9669 95.0719L55.9751 95.0662L55.9831 95.0604L54.8184 93.4346ZM57.4795 90.2607L55.7083 89.3319L55.7038 89.3404L55.6994 89.349L57.4795 90.2607ZM59.0176 85.5977L60.9847 85.9586L60.9853 85.9554L59.0176 85.5977ZM48.8369 66.3105H50.8369V64.3105H48.8369V66.3105ZM46.9326 66.3105V64.3105H44.9326V66.3105H46.9326ZM46.9326 94.6309H44.9326V96.6309H46.9326V94.6309ZM48.8369 94.6309V96.6309H50.8369V94.6309H48.8369ZM34.6992 66.3594C34.6992 65.8971 34.7395 65.5581 34.7945 65.3198L30.8969 64.4204C30.7566 65.0285 30.6992 65.6823 30.6992 66.3594H34.6992ZM34.7945 65.3198C34.8073 65.2642 34.82 65.239 34.8229 65.2336C34.8251 65.2294 34.824 65.2319 34.8214 65.2345L31.993 62.4061C31.4227 62.9764 31.0693 63.6734 30.8969 64.4204L34.7945 65.3198ZM34.8613 65.1936C34.8416 65.2144 34.8891 65.1489 35.1294 65.0768L33.98 61.2455C33.2437 61.4664 32.5262 61.8403 31.9532 62.4471L34.8613 65.1936ZM35.1294 65.0768C35.36 65.0076 35.7805 64.9414 36.459 64.9414V60.9414C35.575 60.9414 34.726 61.0217 33.98 61.2455L35.1294 65.0768ZM36.459 64.9414H48.2021V60.9414H36.459V64.9414ZM48.2021 64.9414C49.3247 64.9414 50.4389 65.0237 51.5458 65.1882L52.1339 61.2317C50.8319 61.0382 49.521 60.9414 48.2021 60.9414V64.9414ZM51.572 65.1919C52.6174 65.3332 53.6033 65.593 54.5347 65.9683L56.0298 62.2582C54.7801 61.7547 53.4711 61.4122 52.1077 61.228L51.572 65.1919ZM54.5347 65.9683C55.4227 66.3262 56.2503 66.8249 57.0213 67.4742L59.5978 64.4145C58.5134 63.5013 57.3228 62.7793 56.0298 62.2582L54.5347 65.9683ZM57.0504 67.4982C57.7699 68.0812 58.4277 68.8675 59.006 69.9001L62.496 67.9456C61.707 66.5368 60.7373 65.3374 59.5687 64.3905L57.0504 67.4982ZM59.006 69.9001C59.5762 70.9184 60.0542 72.1953 60.4126 73.763L64.312 72.8717C63.8891 71.0215 63.2929 69.3687 62.496 67.9456L59.006 69.9001ZM60.4126 73.763C60.7612 75.2881 60.9482 77.142 60.9482 79.3477H64.9482C64.9482 76.9309 64.7447 74.7647 64.312 72.8717L60.4126 73.763ZM60.9482 79.3477C60.9482 81.9695 60.7435 84.1749 60.3574 85.9865L64.2696 86.8202C64.7298 84.6604 64.9482 82.162 64.9482 79.3477H60.9482ZM60.3548 85.9986C59.9748 87.838 59.4646 89.3313 58.8528 90.5132L62.405 92.352C63.2256 90.767 63.8383 88.9075 64.2721 86.808L60.3548 85.9986ZM58.8443 90.5298C58.2375 91.7292 57.5445 92.6365 56.7902 93.3028L59.4383 96.3007C60.6372 95.2417 61.6206 93.903 62.4135 92.3354L58.8443 90.5298ZM56.7919 93.3013C55.9809 94.016 55.115 94.5682 54.1918 94.9696L55.7867 98.6379C57.1096 98.0627 58.327 97.2802 59.4367 96.3022L56.7919 93.3013ZM54.2047 94.964C53.2647 95.3649 52.283 95.6349 51.2546 95.7739L51.7903 99.7378C53.1708 99.5513 54.5003 99.1865 55.7738 98.6434L54.2047 94.964ZM51.251 95.7744C50.152 95.9249 49.0545 96 47.958 96V100C49.2378 100 50.5166 99.9123 51.7939 99.7374L51.251 95.7744ZM47.958 96H36.459V100H47.958V96ZM36.459 96C35.7805 96 35.36 95.9338 35.1294 95.8646L33.98 99.6959C34.726 99.9197 35.575 100 36.459 100V96ZM35.1294 95.8646C34.8651 95.7853 34.8039 95.7138 34.8214 95.7313L31.993 98.5597C32.5639 99.1306 33.2677 99.4822 33.98 99.6959L35.1294 95.8646ZM34.8214 95.7313C34.824 95.7339 34.8251 95.7364 34.8229 95.7322C34.82 95.7268 34.8073 95.7016 34.7945 95.646L30.8969 96.5454C31.0693 97.2924 31.4227 97.9894 31.993 98.5597L34.8214 95.7313ZM34.7945 95.646C34.7395 95.4077 34.6992 95.0687 34.6992 94.6064H30.6992C30.6992 95.2835 30.7566 95.9373 30.8969 96.5454L34.7945 95.646ZM34.6992 94.6064V66.3594H30.6992V94.6064H34.6992ZM61.5059 79.8604C61.5059 77.7368 61.3348 75.7663 60.9802 73.9579L57.055 74.7276C57.3514 76.2395 57.5059 77.9474 57.5059 79.8604H61.5059ZM60.9802 73.9579C60.6206 72.1238 60.039 70.4799 59.1966 69.0692L55.7624 71.1202C56.3197 72.0533 56.7636 73.2415 57.055 74.7276L60.9802 73.9579ZM59.1966 69.0692C58.34 67.6349 57.2151 66.4765 55.8192 65.6431L53.7687 69.0776C54.5538 69.5463 55.2193 70.2108 55.7624 71.1202L59.1966 69.0692ZM55.8305 65.65C54.3926 64.7785 52.7319 64.3788 50.9336 64.3595L50.8906 68.3593C52.1197 68.3725 53.0468 68.6401 53.7573 69.0707L55.8305 65.65ZM48.9121 66.3594V94.6064H52.9121V66.3594H48.9121ZM50.9336 96.6063C52.794 96.5863 54.5022 96.0994 55.9669 95.0719L53.6698 91.7973C52.9536 92.2997 52.0576 92.594 50.8906 92.6066L50.9336 96.6063ZM55.9831 95.0604C57.3619 94.0726 58.448 92.7569 59.2596 91.1725L55.6994 89.349C55.1438 90.4338 54.4558 91.2341 53.6536 91.8087L55.9831 95.0604ZM59.2507 91.1896C60.0604 89.6455 60.6298 87.893 60.9847 85.9586L57.0504 85.2367C56.7543 86.8505 56.2983 88.2067 55.7083 89.3319L59.2507 91.1896ZM60.9853 85.9554C61.3346 84.0341 61.5059 82.001 61.5059 79.8604H57.5059C57.5059 81.7887 57.3516 83.5804 57.0498 85.2399L60.9853 85.9554ZM48.8369 64.3105H46.9326V68.3105H48.8369V64.3105ZM44.9326 66.3105V94.6309H48.9326V66.3105H44.9326ZM46.9326 96.6309H48.8369V92.6309H46.9326V96.6309ZM50.8369 94.6309V66.3105H46.8369V94.6309H50.8369ZM78.3047 98.6104L77.9599 100.58L77.9641 100.581L78.3047 98.6104ZM71.1758 95.2412L69.8456 96.7347L69.8522 96.7406L69.8588 96.7464L71.1758 95.2412ZM68.4414 91.7988L66.6912 92.7666L66.6979 92.7789L66.7049 92.7911L68.4414 91.7988ZM66.6348 86.916L64.6868 87.3694L64.6877 87.3731L66.6348 86.916ZM66.6348 73.8057L64.6868 73.3523L66.6348 73.8057ZM68.4414 68.9229L66.6999 67.9394L66.696 67.9463L68.4414 68.9229ZM71.1758 65.4805L69.8588 63.9753L71.1758 65.4805ZM74.5449 63.3076L75.3595 65.1342L75.3697 65.1297L75.3799 65.125L74.5449 63.3076ZM78.3047 62.1357L77.9641 60.165L77.9599 60.1657L78.3047 62.1357ZM89.9502 63.3076L89.1152 65.125L89.1254 65.1297L89.1356 65.1342L89.9502 63.3076ZM93.3193 65.4805L94.6363 63.9753L93.3193 65.4805ZM96.0293 68.9229L94.279 69.8907L94.2839 69.8994L96.0293 68.9229ZM96.0293 91.7988L97.7747 92.7754L97.7795 92.7666L96.0293 91.7988ZM93.3193 95.2412L94.6363 96.7464L94.643 96.7406L94.6495 96.7347L93.3193 95.2412ZM89.9502 97.4385L90.7852 99.2558L89.9502 97.4385ZM86.166 98.6104L85.8254 96.6396L86.166 98.6104ZM84.8721 85.4512L82.9165 85.8702L82.9188 85.8813L82.9213 85.8924L84.8721 85.4512ZM87.7773 90.5293L86.7753 92.2602L86.802 92.2756L86.8291 92.2902L87.7773 90.5293ZM91.6836 90.5293L92.6318 92.2902L92.6491 92.2809L92.6662 92.2713L91.6836 90.5293ZM93.3682 88.7471L91.6591 87.7082L91.6516 87.7206L91.6443 87.733L93.3682 88.7471ZM94.5645 85.4512L92.6137 85.0099L92.6112 85.021L92.6088 85.0321L94.5645 85.4512ZM94.5645 75.2461L92.6088 75.6652L92.6112 75.6763L92.6137 75.6873L94.5645 75.2461ZM93.3682 71.9502L91.6443 72.9642L91.6516 72.9767L91.6591 72.989L93.3682 71.9502ZM91.6836 70.1924L90.701 71.9343L90.7181 71.944L90.7354 71.9533L91.6836 70.1924ZM87.7773 70.1924L88.7447 71.9429L88.7524 71.9386L88.76 71.9343L87.7773 70.1924ZM84.8721 75.2461L82.9213 74.8049L82.9188 74.8159L82.9165 74.827L84.8721 75.2461ZM82.8457 75.0752L80.8969 74.6255L80.8946 74.6357L80.8923 74.6459L82.8457 75.0752ZM85.8975 69.167L87.1226 70.7478L87.128 70.7436L85.8975 69.167ZM87.8994 68.1904L88.2824 70.1534L87.7979 66.193L87.8994 68.1904ZM82.6504 71.0713L81.0471 69.8756L81.0406 69.8844L81.0341 69.8933L82.6504 71.0713ZM80.9658 74.8066L82.892 75.3451L82.8934 75.3398L80.9658 74.8066ZM80.9658 85.915L79.0382 86.4482L79.0397 86.4535L80.9658 85.915ZM82.6504 89.626L81.0341 90.8039L81.0406 90.8128L81.0471 90.8216L82.6504 89.626ZM85.0918 91.75L84.1974 93.5389L85.0918 91.75ZM87.8994 92.5068L87.7979 94.5043L88.236 90.5354L87.8994 92.5068ZM85.8975 91.5547L84.6481 93.1164L84.6575 93.1239L84.6669 93.1313L85.8975 91.5547ZM82.8457 85.6221L80.8923 86.0514L80.8946 86.0616L80.8969 86.0718L82.8457 85.6221ZM82.2354 96.9521C81.0505 96.9521 79.8543 96.8485 78.6453 96.6396L77.9641 100.581C79.3918 100.828 80.816 100.952 82.2354 100.952V96.9521ZM78.6494 96.6403C77.5171 96.4421 76.4286 96.103 75.3799 95.6211L73.7099 99.2558C75.0701 99.8808 76.4881 100.323 77.9599 100.58L78.6494 96.6403ZM75.3799 95.6211C74.358 95.1516 73.3961 94.5264 72.4928 93.7361L69.8588 96.7464C71.0388 97.7789 72.323 98.6186 73.7099 99.2558L75.3799 95.6211ZM72.506 93.7477C71.6453 92.9812 70.8654 92.0097 70.1779 90.8065L66.7049 92.7911C67.5799 94.3224 68.6229 95.6458 69.8456 96.7347L72.506 93.7477ZM70.1917 90.831C69.5321 89.6382 68.9881 88.1892 68.5818 86.4589L64.6877 87.3731C65.1604 89.3863 65.8208 91.1926 66.6912 92.7666L70.1917 90.831ZM68.5827 86.4626C68.186 84.7583 67.9756 82.727 67.9756 80.3486H63.9756C63.9756 82.9507 64.2046 85.2977 64.6868 87.3694L68.5827 86.4626ZM67.9756 80.3486C67.9756 77.9876 68.1858 75.9642 68.5827 74.2591L64.6868 73.3523C64.2048 75.4232 63.9756 77.7617 63.9756 80.3486H67.9756ZM68.5827 74.2591C68.9892 72.5126 69.5323 71.0692 70.1868 69.8994L66.696 67.9463C65.8206 69.5109 65.1592 71.3227 64.6868 73.3523L68.5827 74.2591ZM70.1829 69.9063C70.8693 68.6908 71.6441 67.7282 72.4928 66.9856L69.8588 63.9753C68.6241 65.0557 67.576 66.3879 66.6999 67.9394L70.1829 69.9063ZM72.4928 66.9856C73.3915 66.1993 74.3465 65.5859 75.3595 65.1342L73.7304 61.481C72.3344 62.1035 71.0434 62.9387 69.8588 63.9753L72.4928 66.9856ZM75.3799 65.125C76.4286 64.6431 77.5171 64.304 78.6494 64.1058L77.9599 60.1657C76.4881 60.4233 75.0701 60.8653 73.7099 61.4903L75.3799 65.125ZM78.6453 64.1065C79.8543 63.8976 81.0505 63.7939 82.2354 63.7939V59.7939C80.816 59.7939 79.3918 59.9182 77.9641 60.165L78.6453 64.1065ZM82.2354 63.7939C83.4202 63.7939 84.6164 63.8976 85.8254 64.1065L86.5066 60.165C85.0789 59.9182 83.6547 59.7939 82.2354 59.7939V63.7939ZM85.8254 64.1065C86.9746 64.3052 88.0697 64.6446 89.1152 65.125L90.7852 61.4903C89.4218 60.8639 87.9941 60.4221 86.5066 60.165L85.8254 64.1065ZM89.1356 65.1342C90.1486 65.5859 91.1036 66.1993 92.0023 66.9856L94.6363 63.9753C93.4517 62.9387 92.1607 62.1035 90.7648 61.481L89.1356 65.1342ZM92.0023 66.9856C92.8466 67.7244 93.6105 68.6816 94.279 69.8906L97.7795 67.9551C96.9181 66.3972 95.8754 65.0595 94.6363 63.9753L92.0023 66.9856ZM94.2839 69.8994C94.9384 71.0692 95.4815 72.5126 95.888 74.2591L99.7839 73.3523C99.3115 71.3227 98.6501 69.5109 97.7747 67.9463L94.2839 69.8994ZM95.888 74.2591C96.2849 75.9642 96.4951 77.9876 96.4951 80.3486H100.495C100.495 77.7617 100.266 75.4232 99.7839 73.3523L95.888 74.2591ZM96.4951 80.3486C96.4951 82.7096 96.2849 84.7331 95.888 86.4382L99.7839 87.345C100.266 85.2741 100.495 82.9355 100.495 80.3486H96.4951ZM95.888 86.4382C95.4813 88.1854 94.9372 89.6407 94.279 90.831L97.7795 92.7666C98.6513 91.19 99.3116 89.3738 99.7839 87.345L95.888 86.4382ZM94.2839 90.8223C93.6144 92.0189 92.8455 92.985 91.9892 93.7477L94.6495 96.7347C95.8765 95.642 96.9143 94.3131 97.7747 92.7754L94.2839 90.8223ZM92.0023 93.7361C91.099 94.5264 90.1372 95.1516 89.1152 95.6211L90.7852 99.2558C92.1721 98.6186 93.4563 97.7789 94.6363 96.7464L92.0023 93.7361ZM89.1152 95.6211C88.0697 96.1015 86.9746 96.4409 85.8254 96.6396L86.5066 100.581C87.9941 100.324 89.4218 99.8822 90.7852 99.2558L89.1152 95.6211ZM85.8254 96.6396C84.6164 96.8485 83.4202 96.9521 82.2354 96.9521V100.952C83.6547 100.952 85.0789 100.828 86.5066 100.581L85.8254 96.6396ZM82.4326 80.3486C82.4326 82.4665 82.584 84.3186 82.9165 85.8702L86.8277 85.0321C86.5742 83.8494 86.4326 82.2998 86.4326 80.3486H82.4326ZM82.9213 85.8924C83.2591 87.3855 83.7291 88.7089 84.3837 89.7859L87.8018 87.7082C87.4474 87.1251 87.1036 86.2512 86.8228 85.0099L82.9213 85.8924ZM84.3837 89.7859C85.0025 90.8039 85.7814 91.6848 86.7753 92.2602L88.7794 88.7984C88.5363 88.6577 88.1921 88.3504 87.8018 87.7082L84.3837 89.7859ZM86.8291 92.2902C87.7313 92.776 88.7059 93.042 89.7305 93.042V89.042C89.4204 89.042 89.0929 88.9662 88.7255 88.7684L86.8291 92.2902ZM89.7305 93.042C90.755 93.042 91.7296 92.776 92.6318 92.2902L90.7354 88.7684C90.368 88.9662 90.0405 89.042 89.7305 89.042V93.042ZM92.6662 92.2713C93.6912 91.6931 94.4808 90.8002 95.092 89.7611L91.6443 87.733C91.279 88.3541 90.9455 88.6494 90.701 88.7873L92.6662 92.2713ZM95.0772 89.7859C95.737 88.7005 96.199 87.3686 96.5201 85.8702L92.6088 85.0321C92.344 86.2681 92.0085 87.1335 91.6591 87.7082L95.0772 89.7859ZM96.5152 85.8924C96.8682 84.3316 97.0283 82.4713 97.0283 80.3486H93.0283C93.0283 82.2949 92.8792 83.8364 92.6137 85.0099L96.5152 85.8924ZM97.0283 80.3486C97.0283 78.2259 96.8682 76.3657 96.5152 74.8049L92.6137 75.6873C92.8792 76.8609 93.0283 78.4023 93.0283 80.3486H97.0283ZM96.5201 74.827C96.199 73.3287 95.737 71.9968 95.0772 70.9114L91.6591 72.989C92.0085 73.5637 92.344 74.4291 92.6088 75.6652L96.5201 74.827ZM95.092 70.9362C94.4788 69.8936 93.6794 68.9955 92.6318 68.4314L90.7354 71.9533C90.9573 72.0728 91.281 72.3466 91.6443 72.9642L95.092 70.9362ZM92.6662 68.4504C91.76 67.9392 90.7733 67.6553 89.7305 67.6553V71.6553C90.0223 71.6553 90.3377 71.7294 90.701 71.9343L92.6662 68.4504ZM89.7305 67.6553C88.6877 67.6553 87.701 67.9392 86.7947 68.4504L88.76 71.9343C89.1233 71.7294 89.4386 71.6553 89.7305 71.6553V67.6553ZM86.81 68.4419C85.7932 69.0038 85.0045 69.8901 84.3837 70.9114L87.8018 72.989C88.1902 72.3501 88.5245 72.0646 88.7447 71.9429L86.81 68.4419ZM84.3837 70.9114C83.7291 71.9884 83.2591 73.3118 82.9213 74.8049L86.8228 75.6873C87.1036 74.446 87.4474 73.5721 87.8018 72.989L84.3837 70.9114ZM82.9165 74.827C82.584 76.3787 82.4326 78.2308 82.4326 80.3486H86.4326C86.4326 78.3975 86.5742 76.8479 86.8277 75.6652L82.9165 74.827ZM84.3574 80.3486C84.3574 78.4129 84.513 76.8062 84.7991 75.5045L80.8923 74.6459C80.5274 76.3065 80.3574 78.2153 80.3574 80.3486H84.3574ZM84.7945 75.5249C85.1104 74.1561 85.4905 73.1059 85.9044 72.3298L82.3749 70.4475C81.7472 71.6246 81.2646 73.032 80.8969 74.6255L84.7945 75.5249ZM85.9044 72.3298C86.3356 71.5212 86.7571 71.031 87.1226 70.7478L84.6723 67.5862C83.7357 68.312 82.9853 69.303 82.3749 70.4475L85.9044 72.3298ZM87.128 70.7436C87.6067 70.37 87.9906 70.2104 88.2824 70.1534L87.5164 66.2274C86.4736 66.4309 85.5228 66.9223 84.6669 67.5904L87.128 70.7436ZM87.7979 66.193C86.5454 66.2567 85.3408 66.5867 84.1974 67.1584L85.9862 70.7361C86.6657 70.3964 87.3329 70.2218 88.001 70.1878L87.7979 66.193ZM84.1974 67.1584C82.9615 67.7764 81.9173 68.7088 81.0471 69.8756L84.2536 72.2669C84.8157 71.5132 85.3992 71.0296 85.9862 70.7361L84.1974 67.1584ZM81.0341 69.8933C80.1538 71.1012 79.5053 72.5848 79.0382 74.2735L82.8934 75.3398C83.2727 73.9685 83.7473 72.9619 84.2667 72.2493L81.0341 69.8933ZM79.0397 74.2681C78.5527 76.0101 78.3311 78.0504 78.3311 80.3486H82.3311C82.3311 78.2849 82.5326 76.6305 82.892 75.3451L79.0397 74.2681ZM78.3311 80.3486C78.3311 82.6477 78.5529 84.6935 79.0382 86.4482L82.8934 85.3819C82.5324 84.0767 82.3311 82.4115 82.3311 80.3486H78.3311ZM79.0397 86.4535C79.5076 88.1272 80.1564 89.5996 81.0341 90.8039L84.2667 88.448C83.7447 87.7318 83.2704 86.7302 82.892 85.3765L79.0397 86.4535ZM81.0471 90.8216C81.9173 91.9885 82.9615 92.9209 84.1974 93.5389L85.9862 89.9611C85.3992 89.6676 84.8157 89.184 84.2536 88.4303L81.0471 90.8216ZM84.1974 93.5389C85.3408 94.1106 86.5454 94.4406 87.7979 94.5043L88.001 90.5094C87.3329 90.4754 86.6657 90.3009 85.9862 89.9611L84.1974 93.5389ZM88.236 90.5354C87.9665 90.4893 87.5987 90.3454 87.128 89.9781L84.6669 93.1313C85.5308 93.8056 86.4977 94.2965 87.5628 94.4783L88.236 90.5354ZM87.1469 89.993C86.7652 89.6876 86.3371 89.1787 85.9044 88.3674L82.3749 90.2498C82.9839 91.3916 83.7277 92.3801 84.6481 93.1164L87.1469 89.993ZM85.9044 88.3674C85.4905 87.5914 85.1104 86.5411 84.7945 85.1724L80.8969 86.0718C81.2646 87.6652 81.7472 89.0727 82.3749 90.2498L85.9044 88.3674ZM84.7991 85.1928C84.513 83.8911 84.3574 82.2844 84.3574 80.3486H80.3574C80.3574 82.4819 80.5274 84.3908 80.8923 86.0514L84.7991 85.1928ZM119.906 97.6826L118.854 99.3831L118.871 99.394L118.889 99.4045L119.906 97.6826ZM118.979 96.9502L117.534 98.333L117.549 98.3489L117.564 98.3644L118.979 96.9502ZM106.479 83.8887L107.923 82.5059L104.102 78.5122L104.483 84.0268L106.479 83.8887ZM106.918 89.7236L108.914 89.5962L108.913 89.5776L108.911 89.5591L106.918 89.7236ZM107.382 95.8027L105.386 95.9358L105.388 95.9688L105.392 96.0017L107.382 95.8027ZM107.479 96.8525L105.485 97.0059L105.488 97.0462L105.493 97.0862L107.479 96.8525ZM107.333 97.6338L105.568 96.6926L105.543 96.7397L105.521 96.788L107.333 97.6338ZM102.597 97.7314L101.347 99.2932L101.404 99.3385L101.464 99.3795L102.597 97.7314ZM114.022 63.332L112.944 65.0166L112.959 65.0261L112.974 65.0353L114.022 63.332ZM115.292 64.3574L113.878 65.7716L113.884 65.7775L115.292 64.3574ZM127.182 76.1494L125.773 77.5694L129.629 81.3939L129.175 75.9819L127.182 76.1494ZM126.742 70.7783L128.736 70.6204L128.735 70.6067L128.734 70.5931L126.742 70.7783ZM126.547 68.6787L124.552 68.8179L124.553 68.841L124.555 68.864L126.547 68.6787ZM126.4 66.7256L124.407 66.883L124.407 66.8872L126.4 66.7256ZM126.254 65.1143L124.259 65.2568L124.262 65.2921L124.265 65.3273L126.254 65.1143ZM126.181 64.0889L128.176 63.9464L128.172 63.8934L128.165 63.8408L126.181 64.0889ZM126.327 63.332L124.584 62.3515L124.573 62.3711L124.562 62.3909L126.327 63.332ZM113.607 65.6514L112.193 67.0656L112.2 67.072L113.607 65.6514ZM112.875 65.1143L112.047 66.935L112.143 66.9784L112.243 67.0116L112.875 65.1143ZM110.385 64.9922V62.9922H105.536L108.975 66.4105L110.385 64.9922ZM127.182 81.6914L125.772 83.1097L129.182 86.5V81.6914H127.182ZM127.182 79.1035H129.182V78.2698L128.589 77.6829L127.182 79.1035ZM130.233 64.9414C130.174 64.9414 130.094 64.9313 130.007 64.9006C129.921 64.8701 129.856 64.8293 129.814 64.7961L132.313 61.6726C131.718 61.197 131.002 60.9414 130.233 60.9414V64.9414ZM129.814 64.7961C129.561 64.594 129.465 64.3693 129.437 64.2817C129.412 64.2057 129.43 64.2129 129.43 64.3574H133.43C133.43 63.6425 133.295 62.4584 132.313 61.6726L129.814 64.7961ZM129.43 64.3574V96.1934H133.43V64.3574H129.43ZM129.43 96.1934C129.43 96.3431 129.411 96.3956 129.415 96.3823C129.422 96.3607 129.456 96.2727 129.55 96.1739C129.645 96.0728 129.746 96.0211 129.804 96.0008C129.851 95.9843 129.835 96 129.721 96V100C130.628 100 131.668 99.7548 132.455 98.9227C133.223 98.1115 133.43 97.077 133.43 96.1934H129.43ZM129.721 96H121.249V100H129.721V96ZM121.249 96C120.968 96 120.896 95.9445 120.924 95.9608L118.889 99.4045C119.632 99.8439 120.456 100 121.249 100V96ZM120.959 95.9821C120.745 95.8495 120.557 95.7007 120.393 95.536L117.564 98.3644C117.953 98.7531 118.384 99.0926 118.854 99.3831L120.959 95.9821ZM120.423 95.5674L107.923 82.5059L105.034 85.2715L117.534 98.333L120.423 95.5674ZM104.483 84.0268C104.63 86.1499 104.777 88.1038 104.925 89.8882L108.911 89.5591C108.766 87.7952 108.62 85.8592 108.474 83.7505L104.483 84.0268ZM104.922 89.851C104.972 90.631 105.03 91.4031 105.096 92.1674L109.081 91.8209C109.018 91.0878 108.962 90.3462 108.914 89.5962L104.922 89.851ZM105.096 92.1674C105.161 92.9094 105.217 93.6013 105.265 94.2433L109.254 93.9442C109.205 93.2842 109.147 92.5763 109.081 91.8209L105.096 92.1674ZM105.265 94.2433C105.314 94.8905 105.354 95.4545 105.386 95.9358L109.377 95.6697C109.344 95.1744 109.303 94.599 109.254 93.9442L105.265 94.2433ZM105.392 96.0017C105.441 96.4893 105.471 96.8192 105.485 97.0059L109.474 96.6991C109.455 96.4627 109.421 96.0928 109.372 95.6037L105.392 96.0017ZM105.493 97.0862C105.487 97.0343 105.487 96.9652 105.502 96.8868C105.516 96.8083 105.542 96.7421 105.568 96.6926L109.098 98.575C109.421 97.9683 109.546 97.2976 109.466 96.6189L105.493 97.0862ZM105.521 96.788C105.694 96.4168 105.986 96.1874 106.233 96.0786C106.437 95.9886 106.56 96 106.503 96V100C107.185 100 108.525 99.8089 109.145 98.4796L105.521 96.788ZM106.503 96H103.427V100H106.503V96ZM103.427 96C103.488 96 103.553 96.0099 103.615 96.03C103.676 96.0496 103.714 96.0728 103.73 96.0834L101.464 99.3795C102.03 99.7688 102.697 100 103.427 100V96ZM103.846 96.1697C104.099 96.3719 104.195 96.5965 104.223 96.6842C104.248 96.7601 104.23 96.7529 104.23 96.6084H100.23C100.23 97.3233 100.365 98.5074 101.347 99.2932L103.846 96.1697ZM104.23 96.6084V64.748H100.23V96.6084H104.23ZM104.23 64.748C104.23 64.6265 104.248 64.6068 104.232 64.6506C104.223 64.6741 104.206 64.7109 104.177 64.7544C104.148 64.7985 104.112 64.8407 104.071 64.8779C103.985 64.9553 103.92 64.9734 103.933 64.9695C103.953 64.9635 104.043 64.9414 104.232 64.9414V60.9414C103.305 60.9414 102.235 61.1463 101.391 61.9083C100.508 62.7055 100.23 63.7815 100.23 64.748H104.23ZM104.232 64.9414H112.484V60.9414H104.232V64.9414ZM112.484 64.9414C112.827 64.9414 112.938 65.0127 112.944 65.0166L115.101 61.6475C114.293 61.1306 113.379 60.9414 112.484 60.9414V64.9414ZM112.974 65.0353C113.241 65.1994 113.543 65.4371 113.878 65.7716L116.706 62.9432C116.194 62.4313 115.65 61.9855 115.071 61.6287L112.974 65.0353ZM113.884 65.7775L125.773 77.5694L128.59 74.7294L116.7 62.9374L113.884 65.7775ZM129.175 75.9819C129.012 74.0477 128.866 72.2606 128.736 70.6204L124.748 70.9362C124.879 72.5838 125.026 74.3774 125.189 76.3169L129.175 75.9819ZM128.734 70.5931C128.723 70.4794 128.695 70.1819 128.685 70.0682C128.674 69.9545 128.647 69.657 128.636 69.5433C128.623 69.4057 128.624 69.4184 128.612 69.2808C128.599 69.1432 128.6 69.1559 128.587 69.0184C128.574 68.8808 128.575 68.8935 128.563 68.7559C128.55 68.6183 128.551 68.631 128.538 68.4935L124.555 68.864C124.566 68.9776 124.594 69.2752 124.604 69.3889C124.615 69.5026 124.643 69.8001 124.653 69.9138C124.666 70.0513 124.665 70.0386 124.678 70.1762C124.69 70.3138 124.689 70.3011 124.702 70.4387C124.715 70.5762 124.714 70.5635 124.726 70.7011C124.739 70.8387 124.738 70.826 124.751 70.9636L128.734 70.5931ZM128.542 68.5395C128.493 67.8333 128.443 67.1747 128.394 66.564L124.407 66.8872C124.455 67.4809 124.503 68.1244 124.552 68.8179L128.542 68.5395ZM128.394 66.5682C128.344 65.9371 128.294 65.3806 128.243 64.9012L124.265 65.3273C124.312 65.7594 124.359 66.2771 124.407 66.883L128.394 66.5682ZM128.249 64.9718C128.209 64.4148 128.199 64.2755 128.176 63.9464L124.186 64.2314C124.188 64.2617 124.21 64.5713 124.216 64.6586C124.22 64.7044 124.222 64.7428 124.226 64.7921C124.226 64.7952 124.227 64.8064 124.227 64.8096C124.228 64.8237 124.227 64.813 124.228 64.8272C124.228 64.8295 124.229 64.8337 124.229 64.836C124.229 64.8424 124.229 64.8386 124.23 64.8449C124.23 64.8513 124.23 64.8565 124.231 64.8629C124.234 64.9018 124.231 64.8601 124.233 64.8993C124.234 64.9019 124.236 64.9335 124.236 64.9363C124.244 65.0427 124.239 64.9813 124.247 65.0912C124.249 65.118 124.257 65.2264 124.259 65.2568L128.249 64.9718ZM128.165 63.8408C128.175 63.9152 128.173 63.9991 128.156 64.0844C128.14 64.1686 128.113 64.2327 128.092 64.2732L124.562 62.3909C124.249 62.9783 124.109 63.644 124.196 64.3369L128.165 63.8408ZM128.07 64.3126C127.882 64.6466 127.608 64.8224 127.424 64.896C127.271 64.9572 127.203 64.9414 127.304 64.9414V60.9414C126.593 60.9414 125.281 61.1132 124.584 62.3515L128.07 64.3126ZM127.304 64.9414H130.233V60.9414H127.304V64.9414ZM115.022 64.2372C114.688 63.9036 114.168 63.4372 113.507 63.2169L112.243 67.0116C112.196 66.9962 112.158 66.9805 112.128 66.9672C112.099 66.9538 112.076 66.9418 112.059 66.9328C112.028 66.9154 112.015 66.9053 112.022 66.9102C112.028 66.9146 112.046 66.9284 112.077 66.9553C112.107 66.982 112.146 67.0181 112.193 67.0656L115.022 64.2372ZM113.703 63.2935C113.147 63.0412 112.566 62.9922 112.118 62.9922V66.9922C112.158 66.9922 112.188 66.9935 112.208 66.9949C112.228 66.9963 112.236 66.9977 112.233 66.9972C112.23 66.9967 112.212 66.9937 112.182 66.9853C112.153 66.9768 112.106 66.9616 112.047 66.935L113.703 63.2935ZM112.118 62.9922H110.385V66.9922H112.118V62.9922ZM108.975 66.4105L125.772 83.1097L128.592 80.2731L111.795 63.5739L108.975 66.4105ZM129.182 81.6914V79.1035H125.182V81.6914H129.182ZM128.589 77.6829L115.015 64.2308L112.2 67.072L125.774 80.5241L128.589 77.6829ZM136.63 63.8203L138.044 65.2345L138.064 65.2143L138.084 65.1936L136.63 63.8203ZM152.548 63.2832L151.678 65.0843L151.704 65.0966L151.73 65.1082L152.548 63.2832ZM153.598 64.1133L151.934 65.2227L151.951 65.2495L151.97 65.2758L153.598 64.1133ZM154.037 65.2607L152.05 65.49L152.055 65.5335L152.062 65.5767L154.037 65.2607ZM154.135 69.3135H152.135V74.0466L155.529 70.7476L154.135 69.3135ZM160.238 63.3809L161.632 64.815L161.642 64.8051L161.652 64.7951L160.238 63.3809ZM160.849 62.8682L161.922 64.5555L161.975 64.5222L162.025 64.4856L160.849 62.8682ZM161.801 62.7949L160.638 64.4224L160.688 64.4582L160.741 64.4909L161.801 62.7949ZM162.216 63.1367L163.666 61.7599L163.648 61.7409L163.63 61.7225L162.216 63.1367ZM163.583 64.5771L165.088 63.2601L165.061 63.2297L165.034 63.2003L163.583 64.5771ZM163.852 64.9434L162.115 65.9356L162.149 65.9954L162.187 66.0528L163.852 64.9434ZM163.363 66.2373L164.594 67.8135L164.605 67.8054L163.363 66.2373ZM155.893 72.0723L154.661 70.4961L150.683 73.6037L155.71 74.0639L155.893 72.0723ZM162.411 97.5117L160.622 96.6173L160.602 96.6579L160.584 96.6994L162.411 97.5117ZM162.143 97.8535L163.252 99.5176L163.279 99.4997L163.305 99.481L162.143 97.8535ZM158.456 97.6338L156.644 98.4796L156.666 98.5279L156.691 98.575L158.456 97.6338ZM158.065 76.7842L156.133 77.2995L156.141 77.3293L156.15 77.3589L158.065 76.7842ZM157.382 75.6123L156.004 77.0623L156.024 77.0809L156.044 77.0989L157.382 75.6123ZM156.088 74.9531L155.546 76.8784L155.581 76.8883L155.617 76.8968L156.088 74.9531ZM154.135 74.6846L154.218 72.6863L152.135 72.5995V74.6846H154.135ZM154.037 95.29L152.057 95.0072L154.037 95.29ZM153.549 96.584L155.213 97.6934L155.223 97.6778L155.233 97.6621L153.549 96.584ZM136.63 97.1455L135.216 98.5597L136.63 97.1455ZM151.693 65.2363L150.465 66.815L150.523 66.8599L150.584 66.9004L151.693 65.2363ZM151.107 65.041L150.843 67.0235L150.909 67.0322L150.974 67.0366L151.107 65.041ZM150.155 64.9922V62.9922H148.155V64.9922H150.155ZM150.155 95.9492H148.155V97.9492H150.155V95.9492ZM151.107 95.9248L151.24 97.9204L151.306 97.916L151.372 97.9073L151.107 95.9248ZM151.693 95.7295L152.803 97.3936L152.864 97.3531L152.921 97.3082L151.693 95.7295ZM151.986 95.2656L153.927 95.7507L153.931 95.7331L153.935 95.7153L151.986 95.2656ZM137.922 66.3594C137.922 65.8971 137.962 65.5581 138.017 65.3198L134.12 64.4204C133.979 65.0285 133.922 65.6823 133.922 66.3594H137.922ZM138.017 65.3198C138.03 65.2642 138.043 65.239 138.046 65.2336C138.048 65.2294 138.047 65.2319 138.044 65.2345L135.216 62.4061C134.645 62.9764 134.292 63.6734 134.12 64.4204L138.017 65.3198ZM138.084 65.1936C138.064 65.2144 138.112 65.1489 138.352 65.0768L137.203 61.2455C136.466 61.4664 135.749 61.8403 135.176 62.4471L138.084 65.1936ZM138.352 65.0768C138.583 65.0076 139.003 64.9414 139.682 64.9414V60.9414C138.798 60.9414 137.949 61.0217 137.203 61.2455L138.352 65.0768ZM139.682 64.9414H150.57V60.9414H139.682V64.9414ZM150.57 64.9414C151.28 64.9414 151.594 65.0437 151.678 65.0843L153.417 61.4821C152.557 61.067 151.554 60.9414 150.57 60.9414V64.9414ZM151.73 65.1082C151.946 65.2054 151.963 65.2663 151.934 65.2227L155.262 63.0039C154.777 62.2767 154.093 61.7842 153.366 61.4582L151.73 65.1082ZM151.97 65.2758C152.015 65.3379 152.04 65.3983 152.05 65.49L156.024 65.0315C155.937 64.2768 155.669 63.5723 155.225 62.9508L151.97 65.2758ZM152.062 65.5767C152.112 65.8894 152.135 66.1741 152.135 66.4326H156.135C156.135 65.9425 156.092 65.4458 156.012 64.9448L152.062 65.5767ZM152.135 66.4326V69.3135H156.135V66.4326H152.135ZM155.529 70.7476L161.632 64.815L158.844 61.9467L152.741 67.8793L155.529 70.7476ZM161.652 64.7951C161.734 64.7138 161.799 64.6546 161.848 64.6132C161.898 64.5709 161.923 64.5552 161.922 64.5555L159.775 61.1808C159.427 61.4023 159.108 61.6829 158.824 61.9666L161.652 64.7951ZM162.025 64.4856C161.944 64.5444 161.721 64.6729 161.386 64.6729V60.6729C160.693 60.6729 160.111 60.9315 159.672 61.2507L162.025 64.4856ZM161.386 64.6729C161.202 64.6729 160.916 64.621 160.638 64.4224L162.963 61.1675C162.457 60.8061 161.895 60.6729 161.386 60.6729V64.6729ZM160.741 64.4909C160.721 64.4787 160.718 64.4747 160.731 64.4853C160.743 64.4956 160.767 64.5163 160.802 64.5509L163.63 61.7225C163.411 61.5035 163.155 61.2828 162.861 61.0989L160.741 64.4909ZM160.765 64.5136L162.132 65.954L165.034 63.2003L163.666 61.7599L160.765 64.5136ZM162.078 65.8942C162.102 65.922 162.116 65.9403 162.123 65.9491C162.129 65.9581 162.125 65.9535 162.115 65.9356L165.588 63.9511C165.44 63.6917 165.264 63.461 165.088 63.2601L162.078 65.8942ZM162.187 66.0528C162.01 65.7864 161.949 65.5049 161.949 65.2852H165.949C165.949 64.805 165.823 64.2956 165.516 63.834L162.187 66.0528ZM161.949 65.2852C161.949 65.0266 162.032 64.829 162.099 64.7191C162.158 64.6244 162.192 64.6137 162.122 64.6692L164.605 67.8054C165.216 67.3217 165.949 66.4895 165.949 65.2852H161.949ZM162.132 64.6611L154.661 70.4961L157.124 73.6485L164.594 67.8135L162.132 64.6611ZM155.71 74.0639C157.773 74.2528 158.901 74.8197 159.491 75.4456L162.402 72.7028C160.876 71.0827 158.634 70.3149 156.075 70.0806L155.71 74.0639ZM159.491 75.4456C160.089 76.0808 160.533 77.1314 160.533 78.9082H164.533C164.533 76.4858 163.92 74.3137 162.402 72.7028L159.491 75.4456ZM160.533 78.9082V96.8525H164.533V78.9082H160.533ZM160.533 96.8525C160.533 96.8963 160.53 96.8953 160.536 96.8607C160.542 96.8266 160.563 96.7365 160.622 96.6173L164.2 98.4061C164.474 97.8587 164.533 97.2925 164.533 96.8525H160.533ZM160.584 96.6994C160.642 96.5678 160.764 96.3808 160.98 96.226L163.305 99.481C163.749 99.1635 164.05 98.7486 164.239 98.324L160.584 96.6994ZM161.033 96.1894C161.261 96.0376 161.464 95.998 161.556 95.9878L161.997 99.9634C162.382 99.9206 162.829 99.7997 163.252 99.5176L161.033 96.1894ZM161.556 95.9878C161.482 95.996 161.409 96 161.337 96V100C161.558 100 161.778 99.9877 161.997 99.9634L161.556 95.9878ZM161.337 96H159.286V100H161.337V96ZM159.286 96C159.249 96 159.372 95.9921 159.569 96.0786C159.799 96.1804 160.055 96.3823 160.221 96.6926L156.691 98.575C157.332 99.7771 158.552 100 159.286 100V96ZM160.268 96.788C160.273 96.7983 160.278 96.8124 160.282 96.828C160.285 96.8434 160.285 96.8526 160.285 96.8525H156.285C156.285 97.4133 156.403 97.9633 156.644 98.4796L160.268 96.788ZM160.285 96.8525V78.6396H156.285V96.8525H160.285ZM160.285 78.6396C160.285 77.7785 160.203 76.9493 159.981 76.2095L156.15 77.3589C156.221 77.5956 156.285 78.0034 156.285 78.6396H160.285ZM159.998 76.2689C159.784 75.4651 159.376 74.7161 158.72 74.1257L156.044 77.0989C156.048 77.1024 156.056 77.1104 156.069 77.1327C156.083 77.1569 156.109 77.208 156.133 77.2995L159.998 76.2689ZM158.759 74.1623C158.128 73.5622 157.358 73.2032 156.559 73.0094L155.617 76.8968C155.892 76.9635 155.985 77.0439 156.004 77.0623L158.759 74.1623ZM156.629 73.0278C155.909 72.8253 155.092 72.7227 154.218 72.6863L154.052 76.6828C154.74 76.7115 155.225 76.788 155.546 76.8784L156.629 73.0278ZM152.135 74.6846V94.0449H156.135V74.6846H152.135ZM152.135 94.0449C152.135 94.3061 152.112 94.6248 152.057 95.0072L156.017 95.5729C156.093 95.0438 156.135 94.5325 156.135 94.0449H152.135ZM152.057 95.0072C152.035 95.1658 151.978 95.3277 151.864 95.5059L155.233 97.6621C155.64 97.0264 155.909 96.3257 156.017 95.5729L152.057 95.0072ZM151.885 95.4746C151.859 95.5126 151.756 95.6424 151.437 95.807L153.268 99.3629C154.023 98.9741 154.717 98.4366 155.213 97.6934L151.885 95.4746ZM151.437 95.807C151.298 95.8783 150.918 96 150.131 96V100C151.232 100 152.333 99.845 153.268 99.3629L151.437 95.807ZM150.131 96H139.682V100H150.131V96ZM139.682 96C139.003 96 138.583 95.9338 138.352 95.8646L137.203 99.6959C137.949 99.9197 138.798 100 139.682 100V96ZM138.352 95.8646C138.088 95.7853 138.027 95.7138 138.044 95.7313L135.216 98.5597C135.787 99.1306 136.49 99.4822 137.203 99.6959L138.352 95.8646ZM138.044 95.7313C138.047 95.7339 138.048 95.7364 138.046 95.7322C138.043 95.7268 138.03 95.7016 138.017 95.646L134.12 96.5454C134.292 97.2924 134.645 97.9894 135.216 98.5597L138.044 95.7313ZM138.017 95.646C137.962 95.4077 137.922 95.0687 137.922 94.6064H133.922C133.922 95.2835 133.979 95.9373 134.12 96.5454L138.017 95.646ZM137.922 94.6064V66.3594H133.922V94.6064H137.922ZM154.06 66.5547C154.06 66.1293 154.033 65.6736 153.935 65.2505L150.038 66.1499C150.035 66.1404 150.042 66.1673 150.049 66.2433C150.055 66.3169 150.06 66.4191 150.06 66.5547H154.06ZM153.935 65.2505C153.8 64.6639 153.467 64.0154 152.803 63.5722L150.584 66.9004C150.415 66.7875 150.281 66.6441 150.185 66.4935C150.094 66.3489 150.054 66.2232 150.038 66.1499L153.935 65.2505ZM152.921 63.6576C152.373 63.2315 151.758 63.0799 151.24 63.0454L150.974 67.0366C150.945 67.0346 150.72 67.0133 150.465 66.815L152.921 63.6576ZM151.372 63.0586C151.005 63.0096 150.59 62.9922 150.155 62.9922V66.9922C150.502 66.9922 150.722 67.0073 150.843 67.0235L151.372 63.0586ZM148.155 64.9922V95.9492H152.155V64.9922H148.155ZM150.155 97.9492C150.568 97.9492 150.934 97.9408 151.24 97.9204L150.974 93.9292C150.793 93.9414 150.524 93.9492 150.155 93.9492V97.9492ZM151.372 97.9073C151.805 97.8495 152.322 97.714 152.803 97.3936L150.584 94.0654C150.681 94.0006 150.761 93.9686 150.805 93.9542C150.847 93.94 150.864 93.9396 150.843 93.9423L151.372 97.9073ZM152.921 97.3082C153.451 96.8958 153.779 96.3407 153.927 95.7507L150.046 94.7806C150.068 94.6926 150.11 94.5798 150.185 94.4601C150.262 94.3387 150.359 94.2338 150.465 94.1508L152.921 97.3082ZM153.935 95.7153C154.034 95.2877 154.06 94.8204 154.06 94.3867H150.06C150.06 94.5326 150.055 94.6424 150.048 94.7211C150.041 94.8031 150.034 94.8295 150.038 94.8159L153.935 95.7153ZM154.06 94.3867V66.5547H150.06V94.3867H154.06ZM184.994 75.1973V73.1973H182.994V75.1973H184.994ZM184.994 94.9971H182.994V97.3065L185.28 96.9766L184.994 94.9971ZM189.34 94.3867L189.609 96.3685L189.62 96.367L189.631 96.3654L189.34 94.3867ZM191 94.167L191.234 96.1533L191.258 96.1504L191.283 96.1469L191 94.167ZM192.562 93.9473L192.289 91.966L192.562 93.9473ZM195.199 93.9229L194.191 95.6504L194.247 95.6829L194.305 95.7117L195.199 93.9229ZM195.272 97.6338L196.987 98.6628L197.002 98.6387L197.016 98.6143L195.272 97.6338ZM168.612 97.7803L168.02 99.6904L168.029 99.6932L168.038 99.6959L168.612 97.7803ZM167.489 97.1455L166.075 98.5597L167.489 97.1455ZM167.099 64.9678L168.967 65.682L168.97 65.6731L168.973 65.6641L167.099 64.9678ZM168.002 63.6738L169.202 65.2738L169.223 65.2581L169.243 65.2419L168.002 63.6738ZM169.394 63.0879L169.693 65.0653L169.717 65.0617L169.741 65.0575L169.394 63.0879ZM194.345 63.332L192.602 64.3126L192.639 64.3785L192.681 64.4414L194.345 63.332ZM194.32 66.5547L195.349 68.2697L195.372 68.2561L195.394 68.242L194.32 66.5547ZM192.904 66.6523L192.705 68.6424L192.715 68.6433L192.904 66.6523ZM191.757 66.5303L191.464 68.5087L191.5 68.514L191.536 68.518L191.757 66.5303ZM188.827 66.1152L189.146 64.1408L189.137 64.1394L189.129 64.1382L188.827 66.1152ZM184.994 65.5049L185.319 63.5315L182.994 63.1485V65.5049H184.994ZM184.994 71.7061H182.994V73.7061H184.994V71.7061ZM182.919 65.1631H184.919V63.4253L183.198 63.1827L182.919 65.1631ZM181.015 64.8945L181.294 62.9141L179.015 62.5927V64.8945H181.015ZM181.015 95.5342H179.015V97.807L181.269 97.5179L181.015 95.5342ZM182.919 95.29L183.173 97.2738L184.919 97.05V95.29H182.919ZM182.994 75.1973V94.9971H186.994V75.1973H182.994ZM185.28 96.9766C186.854 96.7493 188.297 96.5467 189.609 96.3685L189.071 92.4049C187.746 92.5848 186.292 92.7891 184.708 93.0176L185.28 96.9766ZM189.631 96.3654C190.165 96.2868 190.7 96.2161 191.234 96.1533L190.766 92.1807C190.194 92.2481 189.621 92.3238 189.049 92.408L189.631 96.3654ZM191.283 96.1469C191.85 96.0659 192.368 95.9931 192.836 95.9285L192.289 91.966C191.813 92.0316 191.289 92.1053 190.717 92.1871L191.283 96.1469ZM192.836 95.9285C193.29 95.8659 193.667 95.8209 193.973 95.7918L193.594 91.8098C193.215 91.8458 192.779 91.8984 192.289 91.966L192.836 95.9285ZM193.973 95.7918C194.133 95.7765 194.259 95.766 194.354 95.7594C194.457 95.7523 194.495 95.752 194.491 95.752V91.752C194.253 91.752 193.929 91.7779 193.594 91.8098L193.973 95.7918ZM194.491 95.752C194.493 95.752 194.364 95.7508 194.191 95.6504L196.207 92.1953C195.644 91.867 195.043 91.752 194.491 91.752V95.752ZM194.305 95.7117C193.968 95.5433 193.731 95.2697 193.603 94.9929C193.492 94.7533 193.492 94.5768 193.492 94.5576H197.492C197.492 93.8907 197.272 92.7233 196.094 92.134L194.305 95.7117ZM193.492 94.5576V96.8037H197.492V94.5576H193.492ZM193.492 96.8037C193.492 96.7815 193.495 96.7517 193.504 96.7192C193.512 96.6868 193.523 96.6641 193.529 96.6533L197.016 98.6143C197.327 98.0608 197.492 97.4472 197.492 96.8037H193.492ZM193.557 96.6048C193.79 96.2179 194.11 96.0659 194.241 96.02C194.355 95.9803 194.375 96 194.223 96V100C194.844 100 196.243 99.904 196.987 98.6628L193.557 96.6048ZM194.223 96H170.492V100H194.223V96ZM170.492 96C169.835 96 169.421 95.9347 169.187 95.8646L168.038 99.6959C168.781 99.9188 169.62 100 170.492 100V96ZM169.205 95.8701C168.963 95.7951 168.898 95.726 168.903 95.7313L166.075 98.5597C166.634 99.1184 167.317 99.4724 168.02 99.6904L169.205 95.8701ZM168.903 95.7313C168.906 95.7339 168.907 95.7364 168.905 95.7322C168.902 95.7268 168.889 95.7016 168.877 95.646L164.979 96.5454C165.151 97.2924 165.505 97.9894 166.075 98.5597L168.903 95.7313ZM168.877 95.646C168.822 95.4077 168.781 95.0687 168.781 94.6064H164.781C164.781 95.2835 164.839 95.9373 164.979 96.5454L168.877 95.646ZM168.781 94.6064V67.1895H164.781V94.6064H168.781ZM168.781 67.1895C168.781 66.3834 168.877 65.9157 168.967 65.682L165.231 64.2535C164.897 65.1266 164.781 66.1401 164.781 67.1895H168.781ZM168.973 65.6641C169.084 65.3663 169.186 65.2861 169.202 65.2738L166.802 62.0738C166.037 62.6475 165.536 63.4299 165.224 64.2714L168.973 65.6641ZM169.243 65.2419C169.337 65.168 169.468 65.0994 169.693 65.0653L169.094 61.1105C168.245 61.2391 167.448 61.5612 166.761 62.1057L169.243 65.2419ZM169.741 65.0575C170.161 64.9834 170.653 64.9414 171.225 64.9414V60.9414C170.462 60.9414 169.733 60.9971 169.046 61.1183L169.741 65.0575ZM171.225 64.9414H193.295V60.9414H171.225V64.9414ZM193.295 64.9414C193.437 64.9414 193.403 64.9613 193.275 64.9135C193.121 64.8561 192.814 64.6895 192.602 64.3126L196.088 62.3515C195.365 61.0666 193.96 60.9414 193.295 60.9414V64.9414ZM192.681 64.4414C192.652 64.3986 192.626 64.3455 192.609 64.287C192.592 64.2293 192.589 64.1848 192.589 64.1621H196.589C196.589 63.4805 196.403 62.8135 196.009 62.2226L192.681 64.4414ZM192.589 64.1621V65.8955H196.589V64.1621H192.589ZM192.589 65.8955C192.589 65.8895 192.588 65.7508 192.67 65.5499C192.762 65.3229 192.945 65.059 193.247 64.8674L195.394 68.242C196.414 67.593 196.589 66.5186 196.589 65.8955H192.589ZM193.291 64.8397C193.425 64.7596 193.538 64.726 193.6 64.7122C193.66 64.6987 193.685 64.7012 193.661 64.7012V68.7012C194.145 68.7012 194.765 68.6203 195.349 68.2697L193.291 64.8397ZM193.661 64.7012C193.599 64.7012 193.426 64.693 193.094 64.6614L192.715 68.6433C193.066 68.6768 193.398 68.7012 193.661 68.7012V64.7012ZM193.103 64.6623C192.787 64.6306 192.412 64.5908 191.978 64.5425L191.536 68.518C191.98 68.5674 192.37 68.6089 192.705 68.6424L193.103 64.6623ZM192.05 64.5519C191.596 64.4847 191.112 64.4179 190.597 64.3514L190.085 68.3185C190.579 68.3822 191.038 68.4456 191.464 68.5087L192.05 64.5519ZM190.597 64.3514C190.113 64.289 189.629 64.2188 189.146 64.1408L188.509 68.0897C189.034 68.1744 189.559 68.2507 190.085 68.3185L190.597 64.3514ZM189.129 64.1382C187.966 63.9605 186.696 63.7583 185.319 63.5315L184.669 67.4783C186.059 67.7072 187.344 67.9119 188.525 68.0923L189.129 64.1382ZM182.994 65.5049V71.7061H186.994V65.5049H182.994ZM184.994 73.7061H194.076V69.7061H184.994V73.7061ZM194.076 73.7061C193.939 73.7061 193.468 73.6704 193.046 73.2484C192.625 72.8265 192.589 72.3561 192.589 72.2188H196.589C196.589 71.7396 196.468 71.0128 195.875 70.42C195.282 69.8272 194.555 69.7061 194.076 69.7061V73.7061ZM192.589 72.2188V74.6602H196.589V72.2188H192.589ZM192.589 74.6602C192.589 74.5535 192.613 74.1023 193.014 73.682C193.432 73.2443 193.914 73.1973 194.076 73.1973V77.1973C194.58 77.1973 195.319 77.0607 195.907 76.4439C196.48 75.8446 196.589 75.1248 196.589 74.6602H192.589ZM194.076 73.1973H184.994V77.1973H194.076V73.1973ZM183.198 63.1827L181.294 62.9141L180.735 66.8749L182.64 67.1435L183.198 63.1827ZM179.015 64.8945V95.5342H183.015V64.8945H179.015ZM181.269 97.5179L183.173 97.2738L182.665 93.3063L180.76 93.5504L181.269 97.5179ZM184.919 95.29V65.1631H180.919V95.29H184.919ZM202.963 79.4453H204.963V79.0122L204.784 78.618L202.963 79.4453ZM196.762 65.7979L194.923 66.5857L194.932 66.6055L194.941 66.6252L196.762 65.7979ZM196.566 65.1875L194.599 65.5453L196.566 65.1875ZM197.055 63.3809L198.278 64.9634L198.3 64.9464L198.321 64.9288L197.055 63.3809ZM212.558 63.1123L211.833 64.9763L211.879 64.9941L211.925 65.0097L212.558 63.1123ZM213.729 63.9668L211.974 64.9245L212.027 65.0224L212.091 65.1137L213.729 63.9668ZM213.974 64.4062L215.853 63.7215L215.85 63.7127L215.846 63.704L213.974 64.4062ZM218.271 76.1982L216.391 76.883L218.316 82.1658L220.16 76.854L218.271 76.1982ZM222.177 64.9434L220.291 64.2777L220.287 64.2876L222.177 64.9434ZM222.445 64.1621L220.588 63.4193L220.567 63.4739L220.548 63.5297L222.445 64.1621ZM222.763 63.5273L221.145 62.351L221.109 62.4012L221.075 62.4536L222.763 63.5273ZM223.227 63.1123L224.184 64.8681L224.243 64.8358L224.3 64.7996L223.227 63.1123ZM226.718 64.7969L228.579 65.528L228.583 65.5189L226.718 64.7969ZM221.176 78.9082L219.314 78.1771L219.176 78.5295V78.9082H221.176ZM221.005 96.0713L219.074 95.5513L221.005 96.0713ZM220.419 97.1455L218.965 95.7723L218.963 95.7748L220.419 97.1455ZM219.345 97.7803L218.733 95.8762L218.722 95.8795L218.712 95.8829L219.345 97.7803ZM204.574 97.7803L203.897 99.662L204.574 97.7803ZM203.598 97.1455L202.054 98.4169L202.075 98.4432L202.098 98.4688L203.598 97.1455ZM217.196 95.9492H215.196V97.9492H217.196V95.9492ZM218.148 95.9248L218.281 97.9204L218.347 97.916L218.413 97.9073L218.148 95.9248ZM218.734 95.7295L219.844 97.3936L219.905 97.3531L219.962 97.3082L218.734 95.7295ZM219.027 95.2656L220.968 95.7507L220.972 95.7331L220.976 95.7153L219.027 95.2656ZM219.101 84.3281H221.101V83.9731L220.978 83.6397L219.101 84.3281ZM212.289 65.749L210.403 66.4147L210.407 66.4261L210.411 66.4375L212.289 65.749ZM211.874 65.1631L210.727 66.8015L210.763 66.8268L210.8 66.8504L211.874 65.1631ZM210.043 64.9922V62.9922H207.181L208.165 65.68L210.043 64.9922ZM217.196 84.5234H219.196V84.1687L219.074 83.8356L217.196 84.5234ZM204.784 78.618L198.583 64.9705L194.941 66.6252L201.142 80.2727L204.784 78.618ZM198.6 65.01C198.572 64.9454 198.555 64.8974 198.544 64.8648C198.534 64.8318 198.533 64.8209 198.534 64.8297L194.599 65.5453C194.666 65.9143 194.786 66.2658 194.923 66.5857L198.6 65.01ZM198.534 64.8297C198.523 64.7668 198.518 64.7075 198.518 64.6504H194.518C194.518 64.9514 194.545 65.2501 194.599 65.5453L198.534 64.8297ZM198.518 64.6504C198.518 64.5711 198.53 64.5986 198.494 64.685C198.475 64.7291 198.447 64.7808 198.406 64.8335C198.366 64.8863 198.321 64.9299 198.278 64.9634L195.832 61.7983C194.859 62.5499 194.518 63.6378 194.518 64.6504H198.518ZM198.321 64.9288C198.362 64.895 198.367 64.9004 198.333 64.9138C198.316 64.9204 198.293 64.9277 198.264 64.9332C198.235 64.9387 198.206 64.9414 198.178 64.9414V60.9414C197.244 60.9414 196.435 61.3039 195.788 61.8329L198.321 64.9288ZM198.178 64.9414H211.508V60.9414H198.178V64.9414ZM211.508 64.9414C211.736 64.9414 211.828 64.9744 211.833 64.9763L213.283 61.2483C212.701 61.0223 212.093 60.9414 211.508 60.9414V64.9414ZM211.925 65.0097C212.066 65.0565 212.105 65.09 212.09 65.0785L214.49 61.8785C214.084 61.5741 213.635 61.3634 213.19 61.2149L211.925 65.0097ZM212.09 65.0785C212.101 65.0865 212.038 65.0415 211.974 64.9245L215.485 63.0091C215.226 62.534 214.87 62.1635 214.49 61.8785L212.09 65.0785ZM212.091 65.1137C212.103 65.1307 212.112 65.144 212.118 65.1538C212.124 65.1636 212.127 65.169 212.128 65.17C212.128 65.1711 212.126 65.1668 212.121 65.1571C212.117 65.1476 212.11 65.1312 212.101 65.1085L215.846 63.704C215.719 63.365 215.541 63.0669 215.368 62.8199L212.091 65.1137ZM212.094 65.091L216.391 76.883L220.15 75.5135L215.853 63.7215L212.094 65.091ZM220.16 76.854L224.066 65.5991L220.287 64.2876L216.381 75.5425L220.16 76.854ZM224.063 65.609C224.164 65.3228 224.257 65.0512 224.343 64.7946L220.548 63.5297C220.471 63.7613 220.385 64.0106 220.291 64.2777L224.063 65.609ZM224.302 64.9049C224.364 64.75 224.416 64.654 224.45 64.6011L221.075 62.4536C220.881 62.7588 220.722 63.086 220.588 63.4193L224.302 64.9049ZM224.38 64.7037C224.351 64.7435 224.287 64.812 224.184 64.8681L222.269 61.3565C221.808 61.6079 221.435 61.9531 221.145 62.351L224.38 64.7037ZM224.3 64.7996C224.058 64.9537 223.883 64.9414 223.935 64.9414V60.9414C223.401 60.9414 222.753 61.043 222.153 61.425L224.3 64.7996ZM223.935 64.9414H226.181V60.9414H223.935V64.9414ZM226.181 64.9414C226.119 64.9414 225.943 64.926 225.738 64.8029L227.796 61.3729C227.265 61.0545 226.698 60.9414 226.181 60.9414V64.9414ZM225.738 64.8029C225.508 64.6649 225.298 64.4516 225.161 64.1776C225.032 63.9202 225.011 63.6963 225.011 63.5762H229.011C229.011 62.8108 228.69 61.9095 227.796 61.3729L225.738 64.8029ZM225.011 63.5762C225.011 63.5295 225.017 63.5461 224.993 63.6465C224.97 63.7424 224.927 63.8831 224.853 64.0749L228.583 65.5189C228.811 64.9302 229.011 64.2515 229.011 63.5762H225.011ZM224.856 64.0658L219.314 78.1771L223.037 79.6393L228.579 65.528L224.856 64.0658ZM219.176 78.9082V94.582H223.176V78.9082H219.176ZM219.176 94.582C219.176 95.0255 219.131 95.3396 219.074 95.5513L222.936 96.5912C223.107 95.9566 223.176 95.2779 223.176 94.582H219.176ZM219.074 95.5513C219.038 95.6836 218.995 95.7406 218.965 95.7723L221.873 98.5188C222.396 97.9645 222.744 97.3053 222.936 96.5912L219.074 95.5513ZM218.963 95.7748C218.987 95.7491 218.949 95.8068 218.733 95.8762L219.957 99.6843C220.652 99.4607 221.33 99.0953 221.875 98.5162L218.963 95.7748ZM218.712 95.8829C218.549 95.9373 218.221 96 217.66 96V100C218.466 100 219.262 99.9162 219.977 99.6776L218.712 95.8829ZM217.66 96H206.137V100H217.66V96ZM206.137 96C205.635 96 205.365 95.9393 205.252 95.8985L203.897 99.662C204.597 99.9142 205.369 100 206.137 100V96ZM205.252 95.8985C205.177 95.8716 205.135 95.8478 205.115 95.8348C205.096 95.8227 205.093 95.8178 205.097 95.8223L202.098 98.4688C202.6 99.0381 203.228 99.4212 203.897 99.662L205.252 95.8985ZM205.142 95.8741C205.148 95.8816 205.101 95.8306 205.058 95.646L201.161 96.5454C201.313 97.2072 201.592 97.856 202.054 98.4169L205.142 95.8741ZM205.058 95.646C205.003 95.4077 204.963 95.0687 204.963 94.6064H200.963C200.963 95.2835 201.02 95.9373 201.161 96.5454L205.058 95.646ZM204.963 94.6064V79.4453H200.963V94.6064H204.963ZM217.196 97.9492C217.609 97.9492 217.975 97.9408 218.281 97.9204L218.015 93.9292C217.834 93.9414 217.565 93.9492 217.196 93.9492V97.9492ZM218.413 97.9073C218.846 97.8495 219.363 97.714 219.844 97.3936L217.625 94.0654C217.722 94.0006 217.802 93.9686 217.846 93.9542C217.888 93.94 217.905 93.9396 217.884 93.9423L218.413 97.9073ZM219.962 97.3082C220.492 96.8958 220.82 96.3407 220.968 95.7507L217.087 94.7806C217.109 94.6926 217.151 94.5798 217.227 94.4601C217.303 94.3387 217.4 94.2338 217.507 94.1508L219.962 97.3082ZM220.976 95.7153C221.075 95.2877 221.101 94.8204 221.101 94.3867H217.101C217.101 94.5326 217.096 94.6424 217.089 94.7211C217.082 94.8031 217.075 94.8295 217.079 94.8159L220.976 95.7153ZM221.101 94.3867V84.3281H217.101V94.3867H221.101ZM220.978 83.6397L214.167 65.0606L210.411 66.4375L217.223 85.0166L220.978 83.6397ZM214.175 65.0834C213.985 64.544 213.625 63.907 212.948 63.4758L210.8 66.8504C210.645 66.7515 210.542 66.6381 210.48 66.5511C210.45 66.5089 210.431 66.4741 210.419 66.4512C210.408 66.4283 210.403 66.4152 210.403 66.4147L214.175 65.0834ZM213.021 63.5246C212.413 63.0993 211.746 62.9922 211.215 62.9922V66.9922C211.238 66.9922 211.009 66.999 210.727 66.8015L213.021 63.5246ZM211.215 62.9922H210.043V66.9922H211.215V62.9922ZM208.165 65.68L215.318 85.2113L219.074 83.8356L211.921 64.3044L208.165 65.68ZM215.196 84.5234V95.9492H219.196V84.5234H215.196Z" fill="#020403" mask="url(#path-2-outside-1_61_119)"/>
</svg>
