<svg width="754" height="543" viewBox="0 0 754 543" fill="none" xmlns="http://www.w3.org/2000/svg">
<g filter="url(#filter0_f_46_459)">
<path d="M728.828 366.365C728.828 566.494 546.664 536.798 346.536 536.798C146.407 536.798 4.09763 566.494 4.09763 366.365C4.09763 166.237 166.334 4 366.463 4C566.592 4 728.828 166.237 728.828 366.365Z" fill="url(#paint0_linear_46_459)"/>
</g>
<line x1="2" y1="426.27" x2="739.317" y2="426.27" stroke="#020403" stroke-width="5"/>
<line x1="13.537" y1="447.246" x2="750.854" y2="447.246" stroke="#020403" stroke-width="5"/>
<line x1="16.6834" y1="470.32" x2="754" y2="470.32" stroke="#020403" stroke-width="5"/>
<line x1="14.5858" y1="493.394" x2="751.902" y2="493.394" stroke="#020403" stroke-width="5"/>
<line x1="12.4882" y1="516.468" x2="749.805" y2="516.468" stroke="#020403" stroke-width="5"/>
<line x1="10.3905" y1="536.395" x2="747.707" y2="536.395" stroke="#020403" stroke-width="5"/>
<defs>
<filter id="filter0_f_46_459" x="0.0976257" y="0" width="732.731" height="542.353" filterUnits="userSpaceOnUse" color-interpolation-filters="sRGB">
<feFlood flood-opacity="0" result="BackgroundImageFix"/>
<feBlend mode="normal" in="SourceGraphic" in2="BackgroundImageFix" result="shape"/>
<feGaussianBlur stdDeviation="2" result="effect1_foregroundBlur_46_459"/>
</filter>
<linearGradient id="paint0_linear_46_459" x1="366.463" y1="4" x2="366.463" y2="728.731" gradientUnits="userSpaceOnUse">
<stop stop-color="#FFE500"/>
<stop offset="1" stop-color="#FFD28D" stop-opacity="0.5"/>
</linearGradient>
</defs>
</svg>
